<svg xmlns="http://www.w3.org/2000/svg" xmlns:xlink="http://www.w3.org/1999/xlink" width="64" height="64" viewBox="0 0 64 64">
    <defs>
        <path id="prefix__a" d="M0.075 0L51.982 0 51.982 53.99 0.075 53.99z"/>
    </defs>
    <g fill="none" fill-rule="evenodd">
        <g transform="translate(0 10)">
            <mask id="prefix__b" fill="#fff">
                <use xlink:href="#prefix__a"/>
            </mask>
            <path fill="#2962FF" d="M51.982 45.692L49.59 38.48c-.836-2.518-2.968-4.377-5.568-4.853l-6.904-1.263v-.537c1.202-.701 2.247-1.639 3.08-2.75h2.086c1.709 0 3.099-1.396 3.099-3.114V13.5c0-7.444-6.025-13.5-13.43-13.5-7.406 0-13.431 6.056-13.431 13.5v7.27c0 2.001 1.417 3.676 3.294 4.067.58 2.984 2.436 5.51 4.97 6.989v.537l-6.904 1.263c-2.598.476-4.732 2.335-5.566 4.853l-.414 1.248-3.518-3.538c-.403-.405-.403-1.064 0-1.469l4.08-4.101-7.66-7.7-4.611 4.637C.827 28.928.075 30.754.075 32.696c0 1.942.752 3.766 2.118 5.14L16.155 51.87C17.521 53.243 19.337 54 21.27 54s3.747-.757 5.08-2.099l5.033-4.634-1.569-1.575h22.169zm-8.665-19.73c0 .573-.464 1.038-1.033 1.038h-.87c.3-.686.528-1.41.675-2.163.441-.092.848-.269 1.228-.491v1.616zm-1.033-3.405v-3.576c.614.36 1.033 1.023 1.033 1.788 0 .766-.419 1.428-1.033 1.788zm-20.663 0c-.614-.36-1.033-1.022-1.033-1.788 0-.765.419-1.428 1.033-1.788v3.576zm0-6.98v1.186c-.367.096-.713.242-1.033.43V13.5c0-6.298 5.099-11.423 11.364-11.423 6.266 0 11.365 5.125 11.365 11.423v3.693c-.32-.188-.665-.335-1.033-.43v-1.186H41.25c-3.054 0-5.927-1.196-8.087-3.368l-1.21-1.216-1.21 1.216c-2.162 2.172-5.034 3.368-8.089 3.368h-1.033zm2.067 7.27v-5.232c3.102-.236 5.995-1.522 8.264-3.691 2.27 2.169 5.163 3.457 8.265 3.69v5.232c0 1.514-.41 2.931-1.117 4.154h-7.148v2.077h5.45c-1.458 1.288-3.362 2.077-5.45 2.077-4.556 0-8.264-3.727-8.264-8.308zm11.364 9.905v.049l-3.1 3.115-3.099-3.115v-.049c.98.31 2.02.479 3.1.479s2.12-.17 3.099-.479zm-18.778 6.384c.596-1.8 2.12-3.127 3.977-3.468l7.221-1.319 4.48 4.504 4.48-4.503 7.22 1.32c1.857.34 3.38 1.667 3.977 3.466l1.487 4.48h-21.37l-4.023-4.046-4.471 4.066c-.39.394-1.07.394-1.461 0l-2.257-2.268.74-2.232zm-9.47-13.28l4.737 4.763-1.122 1.128-4.738-4.763 1.122-1.127zm18.115 24.548c-.975.978-2.273 1.52-3.652 1.52s-2.676-.542-3.653-1.522L3.652 36.368c-.976-.98-1.513-2.285-1.513-3.671 0-1.388.537-2.692 1.513-3.672l.568-.572 4.738 4.763-.037.038c-1.208 1.215-1.208 3.19 0 4.406l7.408 7.447c.585.587 1.364.913 2.192.913.829 0 1.607-.324 2.154-.877l.077-.07 4.76 4.785-.593.546zm2.118-1.953l-4.75-4.773 1.366-1.24 4.74 4.765-1.356 1.248z" mask="url(#prefix__b)"/>
        </g>
        <path fill="#2962FF" d="M60.85 0h-14.7C44.414 0 43 1.41 43 3.145v8.387c0 1.734 1.414 3.145 3.15 3.145h2.805L47.869 21l10.133-6.323h2.848c1.737 0 3.15-1.41 3.15-3.145V3.145C64 1.411 62.587 0 60.85 0zm1.05 11.532c0 .577-.47 1.048-1.05 1.048h-3.451l-6.669 4.16.715-4.16H46.15c-.578 0-1.05-.47-1.05-1.048V3.145c0-.577.472-1.048 1.05-1.048h14.7c.58 0 1.05.47 1.05 1.048v8.387z"/>
        <path fill="#2962FF" d="M47 6L60 6 60 4 47 4zM47 10L55 10 55 8 47 8zM58 10L60 10 60 8 58 8zM31.524 3C18.176 3 6.677 12.262 3.688 25.181l-1.936-3.238L0 22.998 3.591 29l5.983-3.602-1.05-1.757-2.77 1.666C8.65 13.488 19.246 5.05 31.525 5.05c2.684 0 5.333.4 7.871 1.188L40 4.281C37.265 3.431 34.414 3 31.524 3zM63 22.632L57.32 19l-3.406 6.053 1.662 1.063 1.697-3.014c.893 2.785 1.35 5.697 1.35 8.682 0 6.145-1.998 12.152-5.623 16.914L54.506 50c3.905-5.13 6.056-11.599 6.056-18.216 0-3.16-.478-6.247-1.41-9.202l2.85 1.822.998-1.772z"/>
    </g>
</svg>
