<svg xmlns="http://www.w3.org/2000/svg" width="69" height="64" viewBox="0 0 69 64">
    <g fill="#2962FF" fill-rule="evenodd">
        <path d="M64.798 27.577h-3.48c-.406-1.467-1.741-2.488-3.27-2.503h-3.714v-9.04c.009-.344-.17-.666-.467-.842L27.667.13c-.3-.173-.672-.173-.973 0L.486 15.192c-.302.174-.487.495-.486.842v30.124c0 .348.186.67.489.843l26.21 15.061c.15.086.318.131.49.131.176 0 .349-.045.502-.13l13.793-7.918v5.723c-.003 1.1.437 2.157 1.221 2.933.785.777 1.848 1.208 2.954 1.199h19.14c1.108.01 2.175-.42 2.963-1.196.79-.775 1.235-1.832 1.238-2.936V31.773c-.001-2.312-1.88-4.188-4.202-4.196zm-6.715-.556c.784 0 1.419.632 1.419 1.412v.094c0 .375-.15.735-.415 1-.267.264-.628.413-1.004.413H52.4c-.784 0-1.42-.632-1.42-1.413v-.094c0-.375.15-.734.416-1 .266-.263.627-.412 1.004-.412h5.682zM27.189 2.097L38.08 8.355 13.826 22.292 2.935 16.034 27.189 2.097zm-.93 57.438L1.955 45.596V17.718L26.26 31.656v27.879zm.93-29.565L15.78 23.415 40.035 9.48l11.408 6.555L27.19 29.97zm14.295 1.803v20.124l-13.27 7.638V31.656L52.38 17.718v7.356h.03c-1.53.015-2.864 1.036-3.27 2.503h-3.48c-2.317.01-4.186 1.89-4.175 4.196zm25.56 28.095c-.002.588-.242 1.15-.664 1.56-.422.411-.992.636-1.582.626h-19.14c-.586.01-1.153-.217-1.571-.628-.418-.411-.651-.973-.648-1.558V31.773c-.005-.592.225-1.161.641-1.583.417-.422.985-.662 1.579-.667h3.517c.43 1.415 1.748 2.378 3.233 2.363h5.639c1.485.015 2.802-.948 3.233-2.363h3.517c1.243.008 2.247 1.013 2.247 2.25v28.095z"/>
        <path d="M47.035 42h1.091c1.39 0 1.39-2.085 0-2.085h-.04v-2.83h2.875c.134.43.54.72.991.704.576.002 1.045-.463 1.048-1.04v-.702c-.005-.579-.475-1.045-1.054-1.047h-4.911c-.575.003-1.039.472-1.035 1.047v4.912c-.003.574.46 1.041 1.035 1.041zM47.043 50h4.914c.576 0 1.043-.467 1.043-1.043v-4.914c0-.576-.467-1.043-1.043-1.043h-4.914c-.576 0-1.043.467-1.043 1.043v4.914c0 .576.467 1.043 1.043 1.043zm1.042-2.085h2.83v-2.83h-2.83v2.83zM48.126 57.915h-.04v-2.83h2.818c.027 1.368 2.067 1.37 2.096.002v-1.004c-.002-.587-.468-1.065-1.054-1.083h-4.911c-.582.02-1.042.5-1.035 1.083v4.91c0 .568.468 1.023 1.035 1.007h1.091c1.39 0 1.39-2.085 0-2.085z"/>
        <path d="M53.339 36.276l-2.82 2.59-.858-.789c-.908-.834-2.27.417-1.362 1.25l1.54 1.414c.375.345.985.345 1.36 0l3.502-3.215c.907-.834-.454-2.085-1.362-1.251zM53.339 54.275l-2.82 2.59-.858-.788c-.908-.833-2.27.418-1.362 1.251l1.54 1.413c.375.345.985.345 1.36 0l3.502-3.215c.907-.834-.454-2.085-1.362-1.251zM64.034 37h-6.068c-1.288 0-1.288 2 0 2h6.068c1.288 0 1.288-2 0-2zM64.034 46h-6.068c-1.288 0-1.288 2 0 2h6.068c1.288 0 1.288-2 0-2zM64.034 55h-6.068c-1.288 0-1.288 2 0 2h6.068c1.288 0 1.288-2 0-2z"/>
    </g>
</svg>
