<svg xmlns="http://www.w3.org/2000/svg" xmlns:xlink="http://www.w3.org/1999/xlink" width="54" height="64" viewBox="0 0 54 64">
    <defs>
        <path id="prefix__a" d="M0.186 0L53.815 0 53.815 63.989 0.186 63.989z"/>
    </defs>
    <g fill="none" fill-rule="evenodd">
        <mask id="prefix__b" fill="#fff">
            <use xlink:href="#prefix__a"/>
        </mask>
        <path fill="#2962FF" d="M53.579 55.6l-6.798-8.633c2.202-.65 4.106-2.041 5.378-3.933 1.601-2.733.877-6.068.177-9.29-.424-1.656-.677-3.349-.757-5.054.08-1.707.333-3.402.757-5.059.696-3.224 1.424-6.557-.177-9.286-1.658-2.83-4.996-3.877-8.225-4.887-1.607-.438-3.164-1.04-4.644-1.797-1.344-.86-2.591-1.86-3.722-2.98C33.172 2.487 30.456 0 27 0c-3.456 0-6.172 2.486-8.57 4.681-1.13 1.12-2.377 2.12-3.72 2.98-1.48.756-3.037 1.356-4.643 1.792-3.229 1.011-6.567 2.059-8.225 4.888-1.601 2.733-.877 6.069-.176 9.29.423 1.657.676 3.352.755 5.059-.08 1.707-.333 3.401-.757 5.058-.696 3.224-1.424 6.557.177 9.286 1.274 1.892 3.18 3.284 5.384 3.932L.421 55.598c-.379.482-.29 1.175.196 1.548.234.18.53.26.825.225l7.988-.986 1.972 6.815c.116.4.448.7.861.78.07.014.142.02.213.02.345 0 .67-.157.882-.426l7.135-9.064c1.756 1.688 4.062 2.705 6.507 2.87 2.445-.165 4.751-1.182 6.507-2.87l7.135 9.06c.21.271.537.43.882.43.071 0 .143-.006.213-.02.413-.08.745-.38.86-.78l1.973-6.813 7.988.984c.612.077 1.17-.352 1.248-.957.037-.29-.045-.584-.227-.815zm-40.634 4.903l-1.63-5.634c-.151-.523-.666-.858-1.212-.791l-6.257.772 5.608-7.12.618.196c1.604.436 3.16 1.037 4.638 1.792 1.344.86 2.591 1.86 3.722 2.98l.384.35-5.87 7.455zM27 55.173c-2.58 0-4.752-1.987-7.051-4.092-1.25-1.235-2.633-2.332-4.121-3.274-1.62-.838-3.325-1.503-5.087-1.987-2.953-.925-5.742-1.8-6.967-3.889-1.17-1.996-.566-4.778.075-7.724.46-1.807.73-3.656.806-5.517-.075-1.862-.345-3.71-.805-5.518-.64-2.945-1.244-5.727-.075-7.724 1.229-2.09 4.014-2.964 6.967-3.889 1.761-.484 3.466-1.15 5.086-1.986 1.488-.943 2.87-2.04 4.12-3.275 2.3-2.105 4.471-4.091 7.052-4.091 2.58 0 4.752 1.986 7.051 4.091 1.25 1.235 2.633 2.332 4.121 3.275 1.62.837 3.325 1.502 5.087 1.986 2.953.925 5.742 1.8 6.967 3.89 1.17 1.996.566 4.777-.075 7.723-.46 1.807-.73 3.656-.806 5.518.075 1.861.345 3.71.805 5.517.64 2.945 1.244 5.727.075 7.724-1.229 2.09-4.014 2.964-6.967 3.89-1.761.483-3.466 1.149-5.086 1.986-1.488.942-2.87 2.04-4.12 3.274-2.3 2.105-4.471 4.091-7.052 4.091zm16.903-1.095c-.547-.067-1.06.268-1.212.791l-1.636 5.634-5.87-7.453.384-.352c1.13-1.12 2.378-2.12 3.72-2.98 1.48-.755 3.038-1.356 4.644-1.792l.618-.195 5.608 7.119-6.256-.772z" mask="url(#prefix__b)"/>
        <path fill="#2962FF" d="M27 9C15.954 9 7 17.954 7 29s8.954 20 20 20 20-8.954 20-20c-.013-11.04-8.96-19.987-20-20zm0 37.778c-9.819 0-17.778-7.96-17.778-17.778 0-9.819 7.96-17.778 17.778-17.778 9.819 0 17.778 7.96 17.778 17.778-.012 9.813-7.965 17.766-17.778 17.778z"/>
        <path fill="#2962FF" d="M40.566 24.123c-.426-.588-1.106-.935-1.83-.935h-6.932l-2.152-6.624c-.39-1.193-1.67-1.842-2.858-1.45-.683.225-1.22.764-1.444 1.45l-2.146 6.624h-6.938c-1.25-.001-2.265 1.016-2.266 2.272 0 .728.346 1.41.932 1.84l5.612 4.091-2.144 6.624c-.386 1.194.265 2.477 1.454 2.865.69.225 1.445.105 2.032-.323l5.615-4.091 5.613 4.092c.79.59 1.873.59 2.664 0 .802-.573 1.136-1.605.822-2.542l-2.144-6.625 5.612-4.092c1.01-.739 1.234-2.16.498-3.176zm-8.107 5.915c-.398.29-.563.804-.411 1.272l2.398 7.41-6.28-4.579c-.396-.29-.932-.29-1.33 0l-6.279 4.579 2.398-7.41c.152-.468-.014-.98-.412-1.27l-6.277-4.579h7.76c.49 0 .925-.317 1.077-.785l2.398-7.41 2.398 7.408c.152.469.587.786 1.077.786l7.76.001-6.277 4.577z"/>
    </g>
</svg>
