<svg xmlns="http://www.w3.org/2000/svg" width="54" height="63" viewBox="0 0 54 63">
    <g fill="#2962FF" fill-rule="evenodd">
        <path d="M35.989 7.782C35.339 3.345 31.367 0 26.752 0c-2.969 0-5.788 1.393-7.54 3.727-.359.475-.251 1.143.24 1.491.487.347 1.175.243 1.532-.233 1.342-1.785 3.498-2.85 5.768-2.85 3.53 0 6.565 2.557 7.064 5.948.077.533.548.917 1.085.917.051 0 .105-.005.156-.011.6-.084 1.017-.624.932-1.207zM51.849 20.268l-3.196-5.712c-.193-.345-.54-.556-.913-.556h-3.062c-.589 0-1.067.513-1.067 1.144 0 .63.478 1.142 1.067 1.142h2.459l1.916 3.428H5.946l1.918-3.428h1.128c.589 0 1.065-.513 1.065-1.142 0-.631-.476-1.144-1.065-1.144h-1.73c-.376 0-.722.211-.914.556l-3.196 5.712c-.198.354-.203.794-.013 1.153.189.358.541.579.927.579h46.87c.383 0 .737-.221.926-.579.189-.359.184-.799-.013-1.153z"/>
        <path d="M45.837 9.92c-.151-.241-.392-.413-.672-.479L30.437 6.028c-.279-.064-.572-.017-.816.133-.243.15-.416.39-.481.665l-1.112 4.705c-.135.576.226 1.151.806 1.285.58.136 1.163-.222 1.3-.799l.863-3.66 12.625 2.926-1.985 8.404c-.135.575.226 1.151.806 1.285.084.018.167.028.247.028.492 0 .935-.333 1.05-.827l2.231-9.446c.066-.276.018-.567-.134-.807zM27.992 12.187l-.974-8.243c-.032-.281-.176-.539-.4-.713-.223-.177-.504-.256-.788-.224L7.944 5.122c-.586.068-1.005.6-.937 1.188l1.625 13.745c.066.545.526.945 1.061.945.043 0 .085-.003.127-.008.586-.068 1.006-.6.937-1.186L9.257 7.12l15.764-1.862.848 7.178c.069.587.598 1.004 1.188.937.586-.069 1.006-.6.935-1.186z"/>
        <path d="M35.97 19.676l-2.173-8.856c-.068-.274-.245-.515-.492-.662-.247-.148-.545-.195-.83-.128L14.84 14.186c-.589.138-.951.717-.81 1.293l1.087 4.426c.14.576.731.932 1.32.792.588-.14.95-.718.808-1.294l-.83-3.382 15.508-3.653 1.918 7.81c.12.491.57.822 1.062.822.086 0 .172-.01.258-.031.588-.137.95-.717.808-1.293z"/>
        <path d="M51.838 20.017c-.03-.57-.504-1.017-1.08-1.017H3.24c-.575 0-1.048.447-1.08 1.017L.003 61.872c-.017.295.09.58.295.794.204.213.488.334.783.334h51.84c.294 0 .577-.12.782-.334.204-.213.311-.5.297-.794l-2.161-41.855zM2.216 60.855l2.049-39.71h45.467l2.05 39.71H2.216z"/>
        <path d="M35 24c-1.654 0-3 1.346-3 3s1.346 3 3 3 3-1.346 3-3-1.346-3-3-3zm0 4c-.55 0-1-.45-1-1s.45-1 1-1c.551 0 1 .45 1 1s-.449 1-1 1zM19 24c-1.656 0-3 1.346-3 3s1.344 3 3 3c1.654 0 3-1.346 3-3s-1.346-3-3-3zm0 4c-.553 0-1.001-.45-1.001-1s.448-1 1-1 1 .45 1 1-.448 1-1 1z"/>
        <path d="M34.942 27h-.081c-.585 0-1.06.478-1.06 1.066 0 .147.03.285.083.412v5.456c0 3.822-3.088 6.934-6.883 6.934s-6.883-3.11-6.883-6.934v-5.868c0-.588-.475-1.066-1.058-1.066-.585 0-1.06.478-1.06 1.066v5.868C18 38.933 22.038 43 27.001 43 31.963 43 36 38.933 36 33.934v-5.868c0-.588-.473-1.066-1.058-1.066z"/>
    </g>
</svg>
