<svg xmlns="http://www.w3.org/2000/svg" width="23" height="20" viewBox="0 0 23 20">
    <g fill="#90CAF9" fill-rule="evenodd">
        <path d="M22.16 3.632c-.122-.16-.309-.255-.508-.255H5.31L4.597.575c-.074-.29-.33-.49-.622-.49H.642C.288.084 0 .377 0 .74c0 .362.288.656.642.656h2.836l3.23 12.68c.074.288.33.49.623.49h11.804c.292 0 .548-.202.622-.49l2.516-9.878c.05-.196.009-.405-.113-.566zm-12.064 9.623H7.827l-.504-1.98h2.773v1.98zm0-3.292H6.988l-.504-1.982h3.612v1.982zm0-3.294H6.15l-.505-1.98h4.451v1.98zm1.285 6.586h3.704v-1.98H11.38v1.98zm0-3.292h3.704V7.981H11.38v1.982zm0-3.294h3.704V4.69H11.38v1.98zm7.257 6.586H16.37v-1.98h2.774l-.505 1.98zm.84-3.292h-3.109V7.981h3.613l-.505 1.982zm.839-3.294h-3.948V4.69h4.452l-.504 1.98zM9.035 15.1c-1.294 0-2.347 1.075-2.347 2.395s1.053 2.396 2.347 2.396c1.293 0 2.346-1.075 2.346-2.396 0-1.32-1.053-2.395-2.346-2.395zm0 3.48c-.586 0-1.062-.487-1.062-1.085s.476-1.084 1.062-1.084c.585 0 1.061.487 1.061 1.084 0 .598-.476 1.084-1.061 1.084zM17.43 15.1c-1.293 0-2.345 1.075-2.345 2.395s1.052 2.396 2.346 2.396 2.346-1.075 2.346-2.396c0-1.32-1.052-2.395-2.346-2.395zm0 3.48c-.584 0-1.06-.487-1.06-1.085s.476-1.084 1.06-1.084c.586 0 1.063.487 1.063 1.084 0 .598-.477 1.084-1.062 1.084z"/>
    </g>
</svg>
