<svg xmlns="http://www.w3.org/2000/svg" xmlns:xlink="http://www.w3.org/1999/xlink" width="14" height="13" viewBox="0 0 14 13">
    <defs>
        <path id="prefix__a" d="M0 0L14 0 14 13 0 13z"/>
    </defs>
    <g fill="none" fill-rule="evenodd">
        <mask id="prefix__b" fill="#fff">
            <use xlink:href="#prefix__a"/>
        </mask>
        <path fill="#FFF" d="M13.434 7.313H.566C.253 7.313 0 6.949 0 6.5c0-.449.253-.813.566-.813h12.868c.313 0 .566.364.566.813 0 .449-.253.813-.566.813M13.434 1.625H.566C.253 1.625 0 1.261 0 .812 0 .364.253 0 .566 0h12.868c.313 0 .566.364.566.813 0 .448-.253.812-.566.812M13.434 13H.566C.253 13 0 12.636 0 12.187c0-.448.253-.812.566-.812h12.868c.313 0 .566.364.566.813 0 .448-.253.812-.566.812" mask="url(#prefix__b)"/>
    </g>
</svg>
