<svg width="18" height="18" viewBox="0 0 18 18" fill="none" xmlns="http://www.w3.org/2000/svg">
<path id="error" fill-rule="evenodd" clip-rule="evenodd" d="M15.3673 2.63297C11.857 -0.877658 6.14296 -0.877658 2.6327 2.63297C-0.877566 6.14317 -0.877566 11.855 2.6327 15.3674C6.14296 18.8776 11.8553 18.8776 15.3673 15.3674C18.8776 11.855 18.8776 6.14317 15.3673 2.63297ZM12.7872 12.6596C12.5035 12.9434 12.0442 12.9434 11.7605 12.6596L9.06378 9.96365L6.23907 12.7872C5.95537 13.0709 5.49647 13.0709 5.21277 12.7872C4.92908 12.5052 4.92908 12.044 5.21277 11.7602L8.03702 8.9353L5.34214 6.23935C5.05844 5.95559 5.05844 5.49476 5.34214 5.21282C5.62583 4.92906 6.08519 4.92906 6.36889 5.21282L9.06378 7.90832L11.6329 5.3404C11.9148 5.05664 12.376 5.05664 12.6597 5.3404C12.9434 5.62416 12.9434 6.08362 12.6597 6.36738L10.0923 8.9353L12.7872 11.6326C13.0709 11.9164 13.0709 12.3758 12.7872 12.6596Z" fill="#D32F2F"/>
</svg>
