<svg xmlns="http://www.w3.org/2000/svg" xmlns:xlink="http://www.w3.org/1999/xlink" width="17" height="17" viewBox="0 0 17 17">
    <defs>
        <path id="prefix__a" d="M0 0L18 0 18 18 0 18z"/>
        <path id="prefix__c" d="M17.792 15.793l-4.087-4.087c1.013-1.235 1.623-2.817 1.623-4.542C15.328 3.21 12.12 0 8.164 0 4.206 0 1 3.21 1 7.164c0 3.955 3.206 7.164 7.164 7.164 1.725 0 3.303-.607 4.538-1.62l4.087 4.084c.278.277.725.277 1.003 0 .277-.274.277-.725 0-1zm-9.628-2.89c-3.167 0-5.742-2.575-5.742-5.739 0-3.164 2.575-5.742 5.742-5.742 3.164 0 5.742 2.578 5.742 5.742s-2.578 5.739-5.742 5.739z"/>
        <filter id="prefix__d" width="123.5%" height="123.5%" x="-11.8%" y="-11.8%" filterUnits="objectBoundingBox">
            <feGaussianBlur in="SourceAlpha" result="shadowBlurInner1" stdDeviation="1.5"/>
            <feOffset dy="1" in="shadowBlurInner1" result="shadowOffsetInner1"/>
            <feComposite in="shadowOffsetInner1" in2="SourceAlpha" k2="-1" k3="1" operator="arithmetic" result="shadowInnerInner1"/>
            <feColorMatrix in="shadowInnerInner1" values="0 0 0 0 0 0 0 0 0 0 0 0 0 0 0 0 0 0 0.5 0"/>
        </filter>
    </defs>
    <g fill="none" fill-rule="evenodd" transform="translate(-1)">
        <mask id="prefix__b" fill="#fff">
            <use xlink:href="#prefix__a"/>
        </mask>
        <g mask="url(#prefix__b)">
            <use fill="#90CAF9" xlink:href="#prefix__c"/>
            <use fill="#000" filter="url(#prefix__d)" xlink:href="#prefix__c"/>
        </g>
    </g>
</svg>
