<svg width="43" height="39" viewBox="0 0 43 39" fill="none" xmlns="http://www.w3.org/2000/svg">
<mask id="mask0" mask-type="alpha" maskUnits="userSpaceOnUse" x="0" y="0" width="43" height="39">
<path fill-rule="evenodd" clip-rule="evenodd" d="M0 0H43V39H0V0Z" fill="white"/>
</mask>
<g mask="url(#mask0)">
<path fill-rule="evenodd" clip-rule="evenodd" d="M32.872 16.6223C32.8709 16.6145 32.8704 16.6061 32.8694 16.5979C32.8638 16.5578 32.8563 16.5172 32.8457 16.4776C32.8457 16.4771 32.8451 16.4765 32.8451 16.4761C32.8355 16.4391 32.8228 16.4022 32.8082 16.3662C32.804 16.3558 32.8 16.346 32.7955 16.3356C32.7843 16.3096 32.7716 16.2835 32.758 16.2581C32.7519 16.2471 32.7463 16.2362 32.7397 16.2253C32.7367 16.219 32.7336 16.2133 32.7301 16.207C32.7159 16.1836 32.7002 16.1617 32.684 16.1399C32.6809 16.1358 32.6785 16.1316 32.6753 16.1274C32.6511 16.0951 32.6253 16.065 32.5974 16.0364C32.5923 16.0312 32.5867 16.026 32.5812 16.0208C32.5573 15.9974 32.5325 15.975 32.5066 15.9542C32.5001 15.949 32.4935 15.9437 32.4869 15.9385C32.4525 15.912 32.4164 15.8876 32.3795 15.8661L18.0466 7.49944L26.2991 2.16315L40.1333 10.2391L34.3069 14.0069C33.8524 14.3009 33.7156 14.9176 34.0019 15.3843C34.2882 15.8516 34.8892 15.9916 35.3437 15.6976L42.5452 11.0405C42.835 10.8537 43.0074 10.5237 42.9998 10.1725C42.9917 9.82131 42.8052 9.50014 42.5078 9.32643L26.7542 0.130615C26.4425 -0.0514845 26.0585 -0.0425594 25.755 0.153527L15.6414 6.69338C15.6393 6.69498 15.6373 6.69645 15.6353 6.69751L10.5815 9.96584C10.5794 9.96744 10.577 9.9685 10.5749 9.9701L0.454242 16.5146C0.164851 16.7019 -0.00740833 17.0313 0.000244767 17.383C0.00776815 17.7343 0.194815 18.0553 0.492248 18.2286L16.2458 27.4249C16.3953 27.5122 16.561 27.5554 16.7267 27.5554C16.9066 27.5554 17.0869 27.504 17.245 27.4019L24.4467 22.7448C24.9012 22.4508 25.0374 21.8336 24.7511 21.3668C24.4654 20.9001 23.8644 20.7597 23.41 21.0542L16.7009 25.3923L2.86614 17.3164L11.1186 11.9797L25.8741 20.5931V32.0009C25.8741 32.3646 26.0666 32.6997 26.3767 32.8756C26.5232 32.9588 26.6853 33 26.8469 33C27.0272 33 27.2071 32.9484 27.3653 32.8464L32.4251 29.5739C32.7083 29.3908 32.8795 29.0717 32.8795 28.7283V16.7393C32.8795 16.7336 32.8786 16.7279 32.8786 16.7222C32.8781 16.6889 32.876 16.6556 32.872 16.6223ZM27.8198 30.1911V20.0119C27.8198 19.6523 27.6317 19.3208 27.3272 19.1434L12.9863 10.7719L16.1789 8.70766L30.0132 16.7836L28.8022 17.5667C28.3472 17.8607 28.2109 18.4773 28.4971 18.9447C28.6821 19.2464 28.9978 19.4114 29.3211 19.4114C29.4984 19.4114 29.6778 19.3615 29.8384 19.2573L30.9338 18.5492V28.1772L27.8198 30.1911Z" fill="#2962FF"/>
<path fill-rule="evenodd" clip-rule="evenodd" d="M41.5325 14.1387L34.4469 18.3369C33.9997 18.6021 33.8657 19.1584 34.1474 19.5792C34.3289 19.8513 34.6399 20 34.9579 20C35.1324 20 35.3089 19.9554 35.467 19.8616L42.5525 15.6629C43.0002 15.3979 43.1343 14.842 42.8527 14.4207C42.571 13.9998 41.9802 13.8736 41.5325 14.1387Z" fill="#2962FF"/>
<path fill-rule="evenodd" clip-rule="evenodd" d="M23.5032 24.6112L16.7674 28.8745L1.45948 20.1285C0.990919 19.8605 0.394214 20.0252 0.127637 20.4966C-0.138809 20.9681 0.0254083 21.5673 0.49449 21.8353L16.3106 30.8717C16.4602 30.9576 16.627 31 16.7933 31C16.9739 31 17.1546 30.9495 17.3132 30.8492L24.5434 26.2729C25.0003 25.984 25.137 25.3776 24.8496 24.9189C24.5627 24.4603 23.9594 24.3223 23.5032 24.6112Z" fill="#2962FF"/>
<path fill-rule="evenodd" clip-rule="evenodd" d="M41.5325 17.1387L34.4469 21.3369C33.9997 21.6021 33.8657 22.1584 34.1474 22.5792C34.3289 22.8513 34.6399 23 34.9579 23C35.1324 23 35.3089 22.9554 35.467 22.8616L42.5525 18.6629C43.0002 18.3979 43.1343 17.842 42.8527 17.4207C42.571 16.9998 41.9802 16.8736 41.5325 17.1387Z" fill="#2962FF"/>
<path fill-rule="evenodd" clip-rule="evenodd" d="M23.5032 28.6112L16.7674 32.8745L1.45948 24.1285C0.990919 23.8605 0.394214 24.0252 0.127637 24.4966C-0.138809 24.9681 0.0254083 25.5673 0.49449 25.8353L16.3106 34.8717C16.4602 34.9576 16.627 35 16.7933 35C16.9739 35 17.1546 34.9495 17.3132 34.8492L24.5434 30.2729C25.0003 29.984 25.137 29.3776 24.8496 28.9189C24.5627 28.4599 23.9594 28.3223 23.5032 28.6112Z" fill="#2962FF"/>
<path fill-rule="evenodd" clip-rule="evenodd" d="M41.5325 21.1387L34.4469 25.3369C33.9997 25.6021 33.8657 26.1584 34.1474 26.5792C34.3289 26.8513 34.6399 27 34.9579 27C35.1324 27 35.3089 26.9554 35.467 26.8616L42.5525 22.6629C43.0002 22.3979 43.1343 21.842 42.8527 21.4207C42.571 20.9998 41.9802 20.8736 41.5325 21.1387Z" fill="#2962FF"/>
<path fill-rule="evenodd" clip-rule="evenodd" d="M23.5032 32.6112L16.7674 36.8745L1.45948 28.1285C0.990919 27.8605 0.394214 28.0252 0.127637 28.4966C-0.138809 28.9681 0.0254083 29.5673 0.49449 29.8353L16.3106 38.8717C16.4602 38.9576 16.627 39 16.7933 39C16.9739 39 17.1546 38.9495 17.3132 38.8492L24.5434 34.2729C25.0003 33.984 25.137 33.3776 24.8496 32.9189C24.5627 32.4603 23.9594 32.3223 23.5032 32.6112Z" fill="#2962FF"/>
</g>
</svg>
