<svg width="43" height="44" viewBox="0 0 43 44" fill="none" xmlns="http://www.w3.org/2000/svg">
<path fill-rule="evenodd" clip-rule="evenodd" d="M41.7095 29.9131C42.6161 28.7629 43.0508 27.5298 42.9953 26.2604C42.9399 24.8615 42.3108 23.767 41.7927 23.0951C42.394 21.6047 42.6253 19.2584 40.6182 17.4363C39.1473 16.1021 36.6497 15.5041 33.1899 15.6699C30.7574 15.7801 28.7224 16.2311 28.639 16.2492H28.6299C28.1673 16.3322 27.6768 16.4333 27.1772 16.544C27.1402 15.955 27.2423 14.4919 28.3335 11.1976C29.6285 7.27804 29.5549 4.27857 28.0931 2.27246C26.5576 0.165868 24.1063 0 23.3845 0C22.6908 0 22.0525 0.285115 21.5996 0.809953C20.5724 1.99642 20.6928 4.18656 20.8224 5.19869C19.6011 8.45605 16.1785 16.4423 13.2834 18.6603C13.228 18.6966 13.1818 18.7426 13.1355 18.7887C12.2841 19.6815 11.7108 20.6477 11.3221 21.4939C10.7767 21.1997 10.1565 21.0339 9.49074 21.0339H3.84802C1.72044 21.0339 0 22.7549 0 24.8615V39.8134C0 41.9297 1.72957 43.6416 3.84802 43.6416H9.49074C10.3141 43.6416 11.0816 43.3838 11.7108 42.9419L13.8847 43.1997C14.2176 43.2457 20.1378 43.9909 26.2151 43.8717C27.3159 43.954 28.3523 44 29.314 44C30.9698 44 32.4129 43.8717 33.6154 43.6138C36.4464 43.0157 38.3794 41.8196 39.3603 40.0622C40.1094 38.719 40.1094 37.3848 39.9889 36.5379C41.8299 34.8817 42.1536 33.0505 42.0891 31.7624C42.052 31.0172 41.8852 30.3822 41.7095 29.9131ZM4.29482 41C3.57651 41 3 40.3801 3 39.6293V24.37C3 23.61 3.58526 23 4.29482 23H9.70518C10.4235 23 11 23.6193 11 24.37V39.6201C11 40.3801 10.4147 40.9901 9.70518 40.9901H4.29482V41ZM38.8556 29.3378C38.4721 29.7423 38.3988 30.3577 38.6915 30.8354C38.6915 30.845 39.0659 31.4883 39.1116 32.3704C39.1753 33.5741 38.6001 34.64 37.3938 35.55C36.9646 35.8807 36.7909 36.4508 36.9736 36.9653C36.9736 36.9744 37.3667 38.1872 36.7272 39.3359C36.1147 40.4387 34.7534 41.2295 32.6886 41.6702C31.0351 42.0287 28.7877 42.0928 26.0283 41.8728C25.9921 41.8728 25.9464 41.8728 25.9007 41.8728C20.0259 42.0009 14.0873 41.2295 14.0236 41.2198H14.0141L13.0914 41.1098C13.1462 40.8522 13.1737 40.5765 13.1737 40.3008V25.3584C13.1737 24.9636 13.11 24.5772 13 24.2187C13.1647 23.6032 13.6215 22.2338 14.6993 21.067C18.8015 17.7955 22.8124 6.75813 22.9862 6.28051C23.059 6.08764 23.0775 5.87603 23.0409 5.66504C22.8858 4.63541 22.9405 3.37666 23.1599 3C23.6437 3.00907 24.9504 3.14691 25.736 4.24062C26.6678 5.53626 26.6316 7.85184 25.6267 10.9213C24.0915 15.5991 23.9635 18.0616 25.1789 19.1462C25.7817 19.6885 26.586 19.7157 27.1703 19.5047C27.728 19.3759 28.2575 19.2659 28.76 19.1831C28.7967 19.174 28.8424 19.1643 28.879 19.1553C31.6836 18.5398 36.7086 18.1631 38.4536 19.7617C39.9339 21.122 38.8832 22.9231 38.7642 23.1159C38.4264 23.6311 38.5268 24.3015 38.9836 24.7151C38.9926 24.7241 39.9519 25.6341 39.9976 26.8565C40.0343 27.6746 39.6508 28.5107 38.8556 29.3378Z" fill="#2962FF"/>
</svg>
