<svg width="35" height="39" viewBox="0 0 35 39" fill="none" xmlns="http://www.w3.org/2000/svg">
<path fill-rule="evenodd" clip-rule="evenodd" d="M7.24574 7.65368C12.9918 2.49951 21.5904 2.42069 27.4159 7.12573L22.7983 7.29902C22.2022 7.32277 21.7415 7.81131 21.7652 8.40243C21.7891 8.97788 22.2659 9.42702 22.838 9.42702C22.8541 9.42702 22.862 9.42702 22.8778 9.42702L29.9669 9.16714C30.5468 9.14339 31 8.67828 31 8.10314V8.02432C31 8.00835 31 8.00058 31 7.98492V7.97714L30.7375 1.02546C30.714 0.434345 30.2131 -0.0225718 29.6249 0.000862538C29.0289 0.0246121 28.5683 0.513159 28.5918 1.10427L28.7587 5.46284C25.8741 3.12183 22.3215 1.76632 18.5229 1.57716C13.818 1.34072 9.29633 2.94076 5.80741 6.07739C1.0072 10.3888 -1.02718 16.9461 0.49847 23.1884C0.617678 23.6769 1.05477 24 1.53955 24C1.62729 24 1.70676 23.9921 1.79407 23.9684C2.36606 23.8267 2.72368 23.2513 2.58095 22.6839C1.24561 17.1985 3.02589 11.4368 7.24574 7.65368Z" fill="#2962FF"/>
<path fill-rule="evenodd" clip-rule="evenodd" d="M34.5033 15.8116C34.3605 15.2442 33.7823 14.8895 33.2122 15.0312C32.6422 15.1732 32.2858 15.7488 32.428 16.316C33.7665 21.8018 31.9846 27.5632 27.7795 31.3465C24.8252 34.0028 21.1192 35.3111 17.4284 35.3111C13.9042 35.3111 10.3882 34.1211 7.55281 31.7722L12.2097 31.3547C12.7954 31.2993 13.231 30.787 13.1757 30.1958C13.1205 29.6047 12.6057 29.179 12.0117 29.2344L4.97114 29.8649C4.38498 29.92 3.94941 30.4323 4.00474 31.0234L4.6383 38.0303C4.68614 38.5821 5.15308 39 5.69952 39C5.73131 39 5.76309 39 5.79488 38.9918C6.38061 38.9367 6.81618 38.4244 6.76085 37.8333L6.38061 33.5694C9.25551 35.8867 12.7797 37.2344 16.5415 37.4236C16.8427 37.4392 17.1433 37.4471 17.4366 37.4471C21.8002 37.4471 25.9501 35.8551 29.2128 32.9228C33.9963 28.6116 36.0236 22.062 34.5033 15.8116Z" fill="#2962FF"/>
</svg>
