<svg width="58" height="34" viewBox="0 0 58 34" fill="none" xmlns="http://www.w3.org/2000/svg">
<path fill-rule="evenodd" clip-rule="evenodd" d="M55.4508 8.34792C53.8852 6.63711 51.6566 5.69155 49.1784 5.69155H43.2141V2.43604C43.2141 1.64638 42.5736 1 41.7912 1H13.3825C12.6001 1 11.9596 1.64638 11.9596 2.43604V7.43858H6.42282C5.63964 7.43858 5 8.08496 5 8.87463C5 9.66429 5.63964 10.3107 6.42282 10.3107H13.3466C13.3591 10.3107 13.3708 10.3107 13.3825 10.3107C13.3825 10.3107 13.3825 10.3107 13.3942 10.3107C14.1765 10.3107 14.817 9.66429 14.817 8.87463V3.87209H40.3801V26.3827H26.9819C26.9226 26.3827 26.8633 26.3827 26.8041 26.3945C26.0927 24.6231 24.3734 23.3665 22.3702 23.3665C20.3546 23.3665 18.6353 24.6349 17.9356 26.4181C17.8288 26.3945 17.7336 26.3827 17.6275 26.3827H14.817V21.3684C14.817 20.5787 14.1765 19.9323 13.3942 19.9323C13.3708 19.9323 13.3466 19.9323 13.3232 19.9323C13.2998 19.9323 13.2873 19.9323 13.2639 19.9323H6.42282C5.63964 19.9323 5 20.5787 5 21.3684C5 22.158 5.63964 22.8044 6.42282 22.8044H11.9596V27.8061C11.9596 28.5966 12.6001 29.2422 13.3825 29.2422H17.615C17.6509 29.2422 17.6743 29.2422 17.7102 29.2422C18.1845 31.3963 20.0933 33 22.3702 33C24.6464 33 26.5435 31.3963 27.0295 29.2422H44.0799C44.5659 31.3845 46.463 33 48.7392 33C51.0162 33 52.9133 31.3963 53.3992 29.2422H56.5772C57.3596 29.2422 58 28.5966 58 27.8061V15.8753C58 12.7757 57.1107 10.1674 55.4508 8.34792ZM22.3702 30.1397C21.3031 30.1397 20.4373 29.2666 20.4373 28.1896C20.4373 27.1125 21.3031 26.2386 22.3702 26.2386C23.4374 26.2386 24.3024 27.1125 24.3024 28.1896C24.3024 29.2666 23.4374 30.1397 22.3702 30.1397ZM48.7392 30.1397C47.6721 30.1397 46.807 29.2666 46.807 28.1896C46.807 27.1125 47.6721 26.2386 48.7392 26.2386C49.8063 26.2386 50.6722 27.1125 50.6722 28.1896C50.6605 29.2666 49.7946 30.1397 48.7392 30.1397ZM55.1544 26.3827H53.1621C52.4507 24.6231 50.7315 23.3665 48.7392 23.3665C46.7477 23.3665 45.0285 24.6113 44.3171 26.3827H43.2258V8.56364H49.1901C52.925 8.56364 55.1544 11.3043 55.1544 15.8871V26.3827Z" fill="#2962FF"/>
<path fill-rule="evenodd" clip-rule="evenodd" d="M24.8143 18.586C24.2487 19.14 24.2487 20.0347 24.8143 20.5879C25.0915 20.859 25.4646 21 25.8377 21C26.2107 21 26.5719 20.859 26.8611 20.5879L30.5816 16.9499L30.5935 16.9375C30.618 16.9026 30.6536 16.8786 30.6782 16.8437C30.6901 16.8197 30.702 16.8081 30.7139 16.7849C30.7257 16.7608 30.7384 16.7492 30.7622 16.726C30.7741 16.702 30.7859 16.6787 30.7986 16.6555C30.8105 16.6315 30.8224 16.6199 30.8342 16.5966C30.8461 16.5726 30.8588 16.5494 30.8707 16.5253C30.8826 16.5021 30.8944 16.4905 30.8944 16.4665C30.9063 16.4432 30.9063 16.42 30.919 16.396C30.9309 16.3727 30.9309 16.3487 30.9428 16.3371C30.9546 16.3139 30.9546 16.2898 30.9546 16.2666C30.9546 16.2434 30.9665 16.2193 30.9665 16.1961C30.9665 16.1721 30.9792 16.1488 30.9792 16.1132C30.9792 16.09 30.9911 16.0783 30.9911 16.0543C31.003 15.9606 31.003 15.8661 30.9911 15.7723C30.9911 15.7483 30.9911 15.7367 30.9792 15.7135C30.9792 15.6894 30.9665 15.6662 30.9665 15.6306C30.9665 15.6073 30.9546 15.5833 30.9546 15.5601C30.9546 15.5368 30.9428 15.5128 30.9428 15.4896C30.9309 15.4656 30.9309 15.4423 30.919 15.4307C30.9063 15.4067 30.9063 15.3834 30.8944 15.3602C30.8826 15.3362 30.8707 15.3246 30.8707 15.3013C30.8588 15.2773 30.8461 15.2541 30.8342 15.23C30.8224 15.2068 30.8105 15.1952 30.7986 15.1712C30.7859 15.1479 30.7741 15.1247 30.7622 15.1007C30.7503 15.0774 30.7384 15.0658 30.7139 15.0418C30.702 15.0186 30.6901 15.0069 30.6782 14.9829C30.6536 14.9481 30.618 14.924 30.5935 14.8892L30.5816 14.8768L27.0417 11.4154C26.4761 10.8615 25.5612 10.8615 24.9949 11.4154C24.4293 11.9686 24.4293 12.8633 24.9949 13.4173L26.0666 14.4646H1.4448C0.65032 14.4646 0 15.1007 0 15.8777C0 16.6555 0.65032 17.2907 1.4448 17.2907H26.0547L24.8143 18.586Z" fill="#2962FF"/>
</svg>
