<svg xmlns="http://www.w3.org/2000/svg" xmlns:xlink="http://www.w3.org/1999/xlink" width="326" height="66" viewBox="0 0 326 66">
    <defs>
        <path id="prefix__a" d="M0 0.25L127 0.25 127 65.737 0 65.737z"/>
    </defs>
    <g fill="none" fill-rule="evenodd">
        <mask id="prefix__b" fill="#fff">
            <use xlink:href="#prefix__a"/>
        </mask>
        <path fill="#0D47A1" d="M110.072 6.045c-.966-.299-1.928-.608-2.894-.895-.609-.183-.742-.556-.493-1.098.3-.646.615-1.286.952-1.99 3.545.878 6.984 1.727 10.319 2.55.07.326.127.43.101.503-.672 1.691-.634 1.732 1.122 2.262 1.613.486 3.21 1.025 4.81 1.55.508.167 1.094.335.81 1.07-.255.672-.777.383-1.224.244-4.503-1.396-9.003-2.795-13.503-4.196M77.748 39.897c-1.52-1.766-1.52-1.766-.493-2.747 1.51 1.61 1.543 1.818.493 2.747m8.02.765c-1.325 1.59-2.7 3.14-4.068 4.695-1.172 1.329-2.676 1.653-4.34 1.3-3.399-.724-6.736-1.648-9.911-3.079-.438-.196-.873-.414-1.267-.683-1.125-.762-1.128-1.196.095-1.778 1.963-.93 3.39-2.38 4.335-4.289.507-1.025.841-2.134 1.314-3.362.434.822.835 1.578 1.325 2.508.954-.794 1.815-1.465 2.63-2.19 5.3-4.702 10.589-9.417 15.88-14.129.47-.42.9-.883 1.395-1.262.336-.258.766-.576 1.131-.55.409.026.832.37 1.157.674.066.061-.212.643-.45.852-6.277 5.487-12.566 10.964-18.867 16.428-2.035 1.764-2.525 1.7-.455 4.344.864 1.106 1.62 2.253 2.862 3.006 1.592.964 2.859.924 4.146-.382 1.01-1.025 1.922-2.144 2.885-3.215.12-.133.267-.24.403-.362.13.055.258.107.389.16-.192.443-.293.958-.589 1.314M74.1 32.826c-.133.06-.27.125-.403.188l-1.232-2.308c.15-.06.299-.121.446-.182.763.608 1.108 1.396 1.19 2.302m1.521-1.147c-.858.076-.846-.336-.704-.857l.704.857M55.848 42.1c-2.282.379-4.573.706-6.843 1.129-1.856.348-2.288.976-2.76 2.838-1.137 4.474-2.358 8.925-3.57 13.379-.583 2.134-2.288 3.136-4.17 3.892-1.702.684-3.465.652-5.602.252 1.178-1.665 2.14-3.156 3.24-4.54 1.014-1.283 1.611-2.706 2.012-4.27 1.458-5.684 2.986-11.351 4.439-17.039.232-.915.638-1.318 1.595-1.497 1.89-.353 3.757-.848 5.607-1.373 1.412-.402 1.531-.671 1.302-2.079-.272-1.705-.632-3.402-.832-5.117-.33-2.84.34-5.551 1.395-8.155.568-1.404.435-1.914-1.012-1.954-1.88-.053-3.773-.067-5.64.118-4.552.45-9.084 1.08-13.636 1.532-4.822.478-9.633.281-14.42-.536-4.291-.73-7.773-3.014-11.085-5.644-.09-.072-.098-.246-.24-.634 1.603.214 3.061.342 4.49.62 5.191 1.008 10.378.906 15.52-.154 5.184-1.065 10.336-2.302 15.474-3.579 3.567-.886 7.17-1.344 10.824-1.694 4.025-.385 7.985-.075 11.955.365 1.328.148 2.662.48 3.926.924 7.052 2.464 14.083 4.98 21.111 7.509.743.266 1.41.735 2.338 1.23-.827.78-1.427 1.379-2.062 1.938-3.77 3.313-7.55 6.611-11.317 9.927-1.215 1.069-1.203 1.089-2.58.174-.522-.348-.998-.782-1.555-1.058-1.623-.801-2.134-2.2-2.25-3.871-.04-.57-.124-1.167-.348-1.683-.145-.333-.582-.541-.89-.805-.226.388-.63.768-.644 1.162-.028.71.163 1.427.287 2.137.21 1.181.534 2.354.639 3.544.307 3.452-1.183 8.732-5.385 10.48-3.021 1.257-6.127 2.002-9.313 2.532m27.307-2.26c-.603.592-1.162 1.232-1.815 1.762-1.08.877-1.84.002-2.72-.6.952-2.128 2.865-1.15 4.338-1.491.067.11.13.22.197.33m-1.121-1.358c-1.906.147-2.526-.244-3.161-2.062-.093-.272.035-.768.243-.959.21-.19.743-.29.975-.153 1.409.816 2.775 1.711 4.152 2.583l-.096.31c-.704.095-1.406.226-2.113.28m37.586-27.403c.113 0 .302-.035.473.006.936.228 1.887.417 2.801.724 3.149 1.057 2.911.706 3.911-2.091.415-1.156.203-1.512-.997-1.955-1.673-.617-3.358-1.208-5.045-1.79-.473-.162-.853-.266-.885-.926-.081-1.692-.162-1.799-1.83-2.233-2.847-.744-5.703-1.451-8.568-2.117-2.647-.617-2.74-1.022-3.91 1.801-.311.744-.726.895-1.46.692-1.255-.347-2.53-.61-3.792-.935-1.833-.47-2.726.194-2.665 2.059.093 2.745 1.09 5.085 3.289 6.805.591.464.765.855.46 1.567-.643 1.509-1.243 3.038-1.788 4.584-.302.86-.827 1.008-1.564.68-.385-.17-.762-.41-1.075-.691-.679-.606-1.42-.97-2.352-.953-.319.006-.655-.104-.962-.217-5.657-2.097-11.329-4.153-16.957-6.322-7.086-2.728-14.323-4.607-21.993-4.341-2.027.072-4.085-.029-6.072.295-3.615.594-7.205 1.382-10.777 2.201-6.156 1.413-12.242 3.105-18.621 3.394-5.469.246-10.79-.168-15.898-2.264-.534-.22-1.055-.478-1.595-.68C.704 7.975.19 8.29.026 9.371c-.143.93.321 1.57.997 2.105 1.931 1.53 3.813 3.122 5.808 4.559 2.754 1.983 5.666 3.73 9.075 4.329 3.758.66 7.516 1.205 11.372 1.013 5.118-.254 10.23-.451 15.293-1.32.214-.038.45.046.524.055l.847 6.98c-1.038 0-1.902-.041-2.76.01-1.154.067-2.305.218-3.46.32-1.409.118-2.186.845-2.676 2.206-2.125 5.896-4.36 11.751-6.53 17.627-.394 1.066-.924 1.98-1.83 2.708-1.24.999-2.414 2.08-3.612 3.13-1.592 1.396-1.476 1.926.52 2.74 1.536.628 3.13.559 4.714.411 2.079-.191 3.816-1.086 4.877-2.942.806-1.416 1.557-2.879 2.183-4.382.725-1.734 1.282-3.535 1.917-5.308.667-1.862 1.322-3.727 2.024-5.575.203-.538.35-1.23 1.388-1.158-.147.605-.255 1.069-.376 1.53-1.096 4.195-2.352 8.357-3.248 12.596-.788 3.74-2.302 7.014-4.819 9.858-.415.47-.812.956-1.206 1.445-1.015 1.269-.653 2.595.94 2.974 1.258.299 2.58.475 3.87.452 4.08-.078 7.884-2.794 8.763-6.519.985-4.176 2.16-8.305 3.227-12.46.362-1.406.467-1.559 1.876-1.8 1.33-.228 2.67-.41 4.001-.65 2.99-.545 5.973-1.133 8.969-1.651.356-.061.98.072 1.11.315.73 1.335 2.015 1.923 3.262 2.523 3.198 1.54 6.64 2.279 10.09 3.031 2.247.49 3.99-.185 5.518-1.708 1.056-1.054 2.068-2.16 3.057-3.284.515-.585.974-.675 1.435-.229-.174 1.153-.432 2.19-.461 3.23-.04 1.415.78 2.174 2.169 2.099 1.783-.093 3.569-.22 5.34-.432.516-.06 1.146-.333 1.465-.718 1.099-1.338 2.085-2.765 3.11-4.164.45-.608.99-1.014 1.79-1.077 1.467-.116 2.705-.82 3.68-1.845 1.023-1.08 1.968-2.256 2.789-3.495 1.673-2.529 2.418-5.453 3.329-8.298.597-1.87 1.133-3.758 1.719-5.707.742.208 1.328.449 1.937.533 1.809.246 3.72.892 5.416.538 3.387-.7 5.32-3.318 6.49-6.443.411-1.106.002-1.827-1.117-2.28-1.027-.41-2.085-.752-3.146-1.073-2.21-.67-2.215-.655-2.218-2.931 0-.032.06-.064.162-.162" mask="url(#prefix__b)"/>
        <path fill="#0D47A1" d="M115.934 12.521c-.032.355-.017.527-.067.688-.159.501-.344 1.013-1.23.99-.793-.022-1.026-.5-1.063-.958-.043-.532.035-1.085.194-1.606.073-.239.473-.599.707-.591.367.012.853.228 1.046.468.274.34.327.78.413 1.01"/>
        <path fill="#FFF" d="M32.807 63.086c1.178-1.66 2.14-3.145 3.238-4.526 1.015-1.278 1.612-2.694 2.014-4.253 1.459-5.667 2.985-11.317 4.437-16.986.234-.912.64-1.313 1.595-1.49 1.89-.353 3.758-.846 5.61-1.37 1.41-.401 1.528-.668 1.302-2.07-.275-1.702-.634-3.393-.834-5.102-.332-2.832.339-5.533 1.395-8.13.568-1.398.434-1.906-1.011-1.946-1.879-.052-3.773-.067-5.64.117-4.551.449-9.085 1.078-13.636 1.528-4.823.477-9.632.28-14.419-.534-4.293-.73-7.774-3.005-11.086-5.628-.09-.07-.097-.245-.239-.632 1.602.216 3.062.341 4.491.619 5.188 1.006 10.378.904 15.519-.152 5.184-1.064 10.336-2.295 15.473-3.568 3.567-.884 7.17-1.34 10.823-1.69 4.024-.383 7.985-.074 11.954.365 1.328.147 2.662.48 3.926.92 7.05 2.458 14.084 4.965 21.112 7.485.74.266 1.409.733 2.335 1.226-.825.776-1.425 1.375-2.061 1.933-3.768 3.302-7.55 6.589-11.315 9.893-1.216 1.067-1.203 1.087-2.582.173-.522-.346-.997-.778-1.553-1.052-1.625-.8-2.134-2.195-2.251-3.859-.04-.568-.123-1.164-.347-1.678-.146-.333-.583-.539-.89-.801-.227.385-.63.763-.645 1.157-.027.705.163 1.422.288 2.129.207 1.179.532 2.346.638 3.532.306 3.442-1.183 8.705-5.385 10.448-3.02 1.252-6.125 1.993-9.314 2.522-2.28.378-4.57.706-6.842 1.127-1.855.344-2.287.97-2.76 2.828-1.136 4.459-2.356 8.896-3.57 13.335-.581 2.128-2.286 3.127-4.167 3.88-1.704.681-3.465.65-5.603.25M115.91 12.479c-.073-.259-.119-.755-.353-1.139-.165-.27-.58-.513-.894-.527-.2-.009-.542.397-.604.666-.136.588-.203 1.211-.166 1.812.031.516.23 1.055.91 1.079.756.027.915-.55 1.05-1.116.043-.181.03-.375.057-.775m-1.53 8.781c-.644-.178-1.284-.369-1.932-.532-1.268-.318-1.568-.121-1.952 1.143-.965 3.177-1.93 6.354-2.926 9.521-.842 2.674-2.25 5.022-4.259 7.003-.765.755-1.661 1.27-2.748 1.43-.67.097-1.047-.04-1.164-.83-.138-.928-.461-1.834-.748-2.736-.151-.478-.507-.97-1.032-.668-.297.171-.52.8-.465 1.18.148 1.024.433 2.034.723 3.034.203.697.134 1.247-.366 1.832-.925 1.083-1.764 2.238-2.627 3.371-.402.527-.887.8-1.583.81-1.144.018-2.288.127-3.432.198l-.837-.18c.088-1.985.756-2.787 2.733-3.209.603-.129.963-.408 1.291-.966 1.154-1.96.965-3.896.135-5.88-.385-.921-.694-1.875-1.093-2.79-.37-.847-.297-1.524.432-2.17.75-.664 1.399-1.438 2.122-2.134.452-.435.586-.862.146-1.36-.477-.54-1.021-.321-1.388.056-1.097 1.128-2.211 2.26-3.136 3.521-.31.423-.228 1.292-.047 1.872.495 1.586 1.146 3.123 1.718 4.687.124.34.172.709.262 1.093-2.69-.174-7.86-3.03-10.527-5.259.364-.368.7-.75 1.08-1.086 3.33-2.941 6.651-5.892 10.009-8.801 1.262-1.093 2.644-2.049 3.91-3.136.718-.616 1.439-.625 2.269-.397 1.18.325 1.403.22 1.837-.879.788-1.99 1.571-3.983 2.317-5.99.174-.466.281-.846.873-.985.264-.061.6-.52.599-.796-.002-.293-.313-.654-.585-.856-.295-.22-.709-.276-1.06-.427-2.15-.93-3.563-3.35-3.345-6 1.628.368 3.23.726 4.826 1.102.114.026.251.177.282.295.334 1.307 1.473 1.517 2.526 1.822 2.803.812 5.612 1.606 8.42 2.404 1.637.465 2.344 1.492 2.152 3.139-.151 1.302-.057 1.583 1.112 2.137.858.405 1.79.658 2.689.977 1.222.435 1.948 2.72 1.068 3.645-.713.75-1.528 1.468-2.432 1.96-1.253.68-1.994.433-2.862-.7-.403-.527-.648-1.175-1.07-1.681-.225-.27-.677-.352-1.026-.52-.148.406-.444.826-.408 1.215.046.497.359.97.557 1.455l-1.038.066"/>
        <path fill="#FDFEFE" d="M83.951 38.618c-.72.092-1.44.218-2.164.271-1.95.142-2.585-.235-3.236-1.991-.097-.264.034-.744.249-.929.214-.185.76-.277.998-.147 1.444.79 2.841 1.654 4.254 2.494l-.1.302M83.261 40.024c-.63.567-1.217 1.181-1.898 1.69-1.13.844-1.926.004-2.844-.576.996-2.043 2.995-1.105 4.535-1.433.07.106.138.213.207.319M77.028 37.339c1.85 1.387 1.89 1.564.605 2.366-1.865-1.522-1.865-1.522-.605-2.366M73.417 30.765c.737.577 1.072 1.326 1.15 2.187l-.39.18-1.192-2.193.432-.174M74.64 30.765l.717.78c-.873.069-.861-.307-.717-.78"/>
        <path fill="#FDD835" d="M86.042 39.828c-.191.446-.294.966-.589 1.324-1.322 1.604-2.693 3.167-4.059 4.733-1.168 1.342-2.669 1.668-4.33 1.311-3.388-.728-6.719-1.66-9.888-3.104-.435-.199-.87-.417-1.263-.687-1.123-.77-1.127-1.208.094-1.793 1.96-.938 3.383-2.4 4.327-4.325.506-1.033.84-2.153 1.31-3.389l1.322 2.527c.952-.799 1.81-1.477 2.622-2.206 5.288-4.742 10.567-9.495 15.846-14.247.468-.42.897-.89 1.392-1.272.333-.258.762-.58 1.128-.555.408.028.83.373 1.155.68.065.061-.213.649-.45.858-6.264 5.533-12.538 11.056-18.825 16.563-2.03 1.78-2.518 1.717-.454 4.382.862 1.114 1.617 2.27 2.856 3.03 1.587.971 2.852.93 4.136-.386 1.008-1.033 1.92-2.159 2.88-3.239.119-.135.266-.244.4-.366l.39.161M107.06 2.104l10.99 2.565c.074.327.138.433.108.504-.715 1.703-.676 1.745 1.198 2.279 1.716.49 3.416 1.03 5.12 1.558.543.169 1.166.338.864 1.08-.274.677-.83.382-1.303.244-4.796-1.404-9.59-2.814-14.383-4.222-1.027-.302-2.052-.613-3.083-.904-.646-.181-.79-.557-.522-1.103.318-.651.653-1.294 1.011-2.001"/>
        <g fill="#FFF">
            <text font-family="Ubuntu-Bold, Ubuntu" font-size="34" font-weight="bold" transform="translate(137 7)">
                <tspan x="0" y="32">SEENDY.RU</tspan>
            </text>
            <text font-family="Ubuntu-Regular, Ubuntu" font-size="11" transform="translate(137 7)">
                <tspan x="1" y="51">ДОСТАВКА ЗАРУБЕЖНЫХ ТОВАРОВ</tspan>
            </text>
        </g>
    </g>
</svg>
