<svg width="127" height="66" viewBox="0 0 127 66" fill="none" xmlns="http://www.w3.org/2000/svg">
<mask id="mask0" mask-type="alpha" maskUnits="userSpaceOnUse" x="0" y="0" width="127" height="66">
<path fill-rule="evenodd" clip-rule="evenodd" d="M0 0.249634H127V65.737H0V0.249634Z" fill="white"/>
</mask>
<g mask="url(#mask0)">
<path fill-rule="evenodd" clip-rule="evenodd" d="M110.072 6.04463C109.106 5.74635 108.144 5.43649 107.179 5.14979C106.569 4.96735 106.436 4.59378 106.685 4.05224C106.984 3.40646 107.3 2.76646 107.637 2.06276C111.182 2.94022 114.621 3.78872 117.956 4.61115C118.026 4.93839 118.083 5.04264 118.057 5.11504C117.385 6.80625 117.423 6.84679 119.179 7.37675C120.792 7.86326 122.389 8.4019 123.99 8.92606C124.497 9.09402 125.083 9.26198 124.799 9.99754C124.544 10.6694 124.022 10.3798 123.575 10.2408C119.072 8.84497 114.572 7.44625 110.072 6.04463M77.7482 39.8975C76.2285 38.1313 76.2285 38.1313 77.2549 37.1495C78.7656 38.7597 78.7978 38.9679 77.7482 39.8975M85.7683 40.6623C84.4429 42.2521 83.0685 43.8014 81.6999 45.3565C80.5285 46.6858 79.0236 47.0101 77.3596 46.6568C73.961 45.9328 70.6237 45.009 67.4487 43.5785C67.0108 43.3815 66.5759 43.1643 66.1816 42.895C65.0565 42.1334 65.0536 41.699 66.2772 41.1169C68.2402 40.1871 69.6668 38.7365 70.6121 36.8281C71.1195 35.803 71.4532 34.6938 71.9255 33.4657C72.3605 34.2884 72.7606 35.0442 73.2509 35.9738C74.2049 35.1803 75.066 34.5085 75.8805 33.7845C81.1809 29.0816 86.4699 24.367 91.7616 19.6554C92.2313 19.2355 92.6602 18.7721 93.156 18.3928C93.4924 18.135 93.9218 17.8165 94.2871 17.8425C94.696 17.8686 95.1193 18.2132 95.444 18.5173C95.5104 18.5781 95.2321 19.1602 94.9943 19.3687C88.7171 24.8564 82.4277 30.3326 76.1273 35.7972C74.0915 37.5608 73.6018 37.4971 75.6718 40.141C76.5358 41.2473 77.2926 42.394 78.5336 43.147C80.1257 44.1113 81.3926 44.0708 82.68 42.7647C83.6893 41.7396 84.6024 40.6215 85.565 39.5503C85.6842 39.417 85.8318 39.3099 85.968 39.1883C86.0985 39.2433 86.2264 39.2954 86.3566 39.3475C86.1655 39.7906 86.0637 40.3061 85.7683 40.6623M74.1002 32.8257C73.9668 32.8865 73.8308 32.9505 73.6974 33.0142C73.2854 32.2439 72.8769 31.4765 72.4651 30.7062C72.6156 30.6453 72.7635 30.5845 72.9114 30.5237C73.6742 31.1319 74.019 31.9195 74.1002 32.8257M75.6225 31.6792C74.7642 31.7545 74.7761 31.3433 74.9182 30.822C75.1151 31.0624 75.3122 31.3027 75.6225 31.6792M55.8476 42.0987C53.5656 42.478 51.2753 42.805 49.0049 43.2278C47.1489 43.5756 46.7172 44.204 46.2443 46.066C45.1077 50.5399 43.887 54.9912 42.6749 59.4448C42.0921 61.5794 40.3872 62.5811 38.5054 63.3372C36.8034 64.0207 35.0404 63.9888 32.9035 63.5892C34.0807 61.924 35.0433 60.4326 36.1423 59.0484C37.1571 57.7655 37.7544 56.3433 38.1546 54.7798C39.6133 49.0952 41.1414 43.4279 42.5938 37.7403C42.8257 36.8252 43.2317 36.4224 44.1885 36.2431C46.079 35.8898 47.9463 35.3946 49.7962 34.8705C51.2083 34.4677 51.3272 34.1986 51.0981 32.7912C50.8256 31.0855 50.4663 29.3885 50.2659 27.6739C49.9357 24.8333 50.6052 22.1227 51.6609 19.5193C52.2292 18.1148 52.0958 17.6051 50.649 17.5645C48.7698 17.5124 46.8764 17.4979 45.0091 17.6833C40.4568 18.1321 35.9248 18.7634 31.3725 19.2152C26.5506 19.693 21.7402 19.4961 16.9531 18.6795C12.6618 17.9497 9.1797 15.6648 5.86813 13.0353C5.77825 12.9629 5.76955 12.7892 5.62776 12.4011C7.23092 12.6154 8.68939 12.7429 10.1189 13.0209C15.309 14.0286 20.4963 13.9273 25.6372 12.8674C30.8216 11.8017 35.9741 10.5651 41.1121 9.28804C44.6785 8.40189 48.2827 7.94434 51.9361 7.59394C55.9606 7.20878 59.9214 7.51864 63.8909 7.95882C65.2192 8.10651 66.5527 8.43954 67.8172 8.88261C74.8686 11.347 81.9 13.8636 88.9285 16.3917C89.671 16.6581 90.3376 17.1273 91.2658 17.6225C90.4391 18.4015 89.8392 19.0009 89.2039 19.5598C85.4345 22.8727 81.6535 26.1712 77.887 29.487C76.6724 30.5556 76.684 30.5758 75.3067 29.6607C74.7848 29.3132 74.309 28.8788 73.7522 28.6034C72.1288 27.8016 71.6182 26.4028 71.5022 24.7319C71.4616 24.1614 71.3778 23.5649 71.1543 23.0494C71.0093 22.7164 70.5717 22.5079 70.2641 22.2443C70.0382 22.6324 69.6349 23.0117 69.6204 23.4056C69.5917 24.1151 69.7831 24.8333 69.9075 25.5428C70.1162 26.7243 70.441 27.8971 70.5456 29.0873C70.8527 32.5393 69.3626 37.8185 65.1609 39.5676C62.1396 40.8245 59.0342 41.5687 55.8476 42.0987M83.1555 39.8398C82.5524 40.4306 81.9928 41.0706 81.3404 41.6005C80.2591 42.478 79.4995 41.6034 78.6206 41.0011C79.5719 38.8726 81.4853 39.8514 82.9583 39.5097C83.0253 39.6195 83.0888 39.7298 83.1555 39.8398M82.0336 38.4817C80.1283 38.6294 79.5078 38.2384 78.8728 36.4198C78.7801 36.1476 78.9079 35.6524 79.1164 35.4612C79.3252 35.2701 79.859 35.1716 80.0909 35.3077C81.4998 36.1244 82.8655 37.0192 84.2428 37.8909C84.2112 37.9923 84.179 38.0965 84.1471 38.2008C83.4425 38.2963 82.7408 38.4266 82.0336 38.4817M119.62 11.0777C119.733 11.0777 119.922 11.043 120.093 11.0835C121.029 11.3123 121.98 11.5005 122.894 11.8075C126.043 12.8645 125.805 12.5141 126.805 9.71664C127.22 8.56117 127.008 8.20497 125.808 7.7619C124.135 7.14507 122.45 6.55431 120.763 5.97223C120.29 5.81006 119.91 5.70581 119.878 5.04554C119.797 3.35433 119.716 3.24718 118.049 2.8128C115.201 2.06855 112.345 1.36195 109.48 0.69589C106.833 0.0790619 106.741 -0.326365 105.569 2.49714C105.259 3.24139 104.844 3.39198 104.11 3.18926C102.855 2.84176 101.579 2.57823 100.318 2.25389C98.4854 1.78475 97.5923 2.44791 97.6532 4.31288C97.746 7.05819 98.7437 9.39809 100.942 11.1183C101.533 11.5816 101.707 11.9725 101.403 12.6849C100.759 14.1937 100.159 15.7227 99.6136 17.2692C99.312 18.1292 98.7869 18.2769 98.0504 17.9497C97.6648 17.7788 97.2878 17.5385 96.9747 17.2576C96.2962 16.6523 95.5542 16.2874 94.6234 16.3048C94.3042 16.3106 93.9679 16.2006 93.6605 16.0876C88.0038 13.991 82.332 11.9349 76.704 9.76587C69.6175 7.03792 62.3805 5.15848 54.711 5.4249C52.6842 5.4973 50.6255 5.39594 48.6393 5.72029C45.0236 6.31395 41.4339 7.10163 37.8617 7.92117C31.706 9.33438 25.6198 11.0256 19.2408 11.3152C13.7723 11.5613 8.45164 11.1472 3.34264 9.05058C2.80913 8.83049 2.2875 8.57275 1.74789 8.37004C0.704059 7.9762 0.19113 8.29185 0.0255656 9.37202C-0.116512 10.3016 0.347415 10.9416 1.02301 11.4773C2.9541 13.0064 4.83591 14.5991 6.83079 16.0355C9.58536 18.0192 12.4965 19.7654 15.9064 20.3649C19.6642 21.0251 23.422 21.5696 27.2784 21.3784C32.3961 21.1236 37.508 20.9267 42.5706 20.0579C42.7851 20.0203 43.0203 20.1042 43.0954 20.1129C43.3766 22.4383 43.6463 24.6537 43.942 27.0921C42.904 27.0921 42.0399 27.0515 41.1817 27.1037C40.0277 27.1703 38.8765 27.3208 37.7225 27.4222C36.3133 27.5406 35.5363 28.2678 35.0462 29.6286C32.9209 35.5249 30.6853 41.3805 28.5165 47.2563C28.1221 48.322 27.5918 49.2368 26.6869 49.9639C25.4459 50.963 24.2715 52.0432 23.074 53.0944C21.4822 54.4902 21.5982 55.0202 23.5931 55.8339C25.1298 56.4623 26.7246 56.3928 28.3077 56.2451C30.3867 56.0537 32.1235 55.1592 33.1847 53.3026C33.9908 51.8868 34.7418 50.4244 35.3681 48.9214C36.093 47.1868 36.6497 45.3855 37.2847 43.6129C37.9519 41.7511 38.6069 39.8862 39.3086 38.0383C39.5115 37.5 39.6594 36.8075 40.6975 36.8799C40.5496 37.4855 40.4423 37.9488 40.3205 38.4093C39.2245 42.6054 37.969 46.7668 37.073 51.0065C36.2846 54.7451 34.7708 58.02 32.254 60.8641C31.8394 61.3333 31.4421 61.8198 31.0478 62.3092C30.0329 63.5776 30.3954 64.9039 31.9872 65.2833C33.2459 65.5815 34.5678 65.7582 35.8581 65.735C39.9378 65.6568 43.742 62.9405 44.6208 59.2163C45.6064 55.0402 46.7807 50.9109 47.8477 46.7553C48.2102 45.3505 48.3148 45.1973 49.7237 44.9569C51.0546 44.7281 52.3942 44.5457 53.7251 44.3053C56.7145 43.7609 59.6985 43.173 62.6937 42.6547C63.05 42.5938 63.6734 42.7271 63.8042 42.9703C64.5346 44.3053 65.8191 44.8929 67.0662 45.4927C70.2641 47.0333 73.7059 47.7717 77.1563 48.5244C79.4035 49.0141 81.1461 48.3393 82.6744 46.8161C83.7296 45.7617 84.7418 44.6557 85.7305 43.5321C86.2464 42.9472 86.7045 42.8574 87.1655 43.3033C86.9916 44.4559 86.7338 45.4927 86.7045 46.5323C86.6642 47.9484 87.4848 48.7071 88.8737 48.6318C90.6566 48.5391 92.4427 48.4117 94.2146 48.2003C94.7304 48.1395 95.3599 47.8673 95.6786 47.4821C96.7775 46.1442 97.7637 44.7166 98.7898 43.3178C99.2395 42.7097 99.7786 42.3043 100.579 42.2405C102.046 42.1247 103.284 41.421 104.258 40.3959C105.282 39.3157 106.227 38.1399 107.048 36.9005C108.721 34.3724 109.466 31.4475 110.377 28.6034C110.974 26.7327 111.51 24.8448 112.096 22.8959C112.838 23.1044 113.424 23.3448 114.033 23.4287C115.842 23.6749 117.753 24.3207 119.449 23.9674C122.836 23.2666 124.77 20.6487 125.939 17.524C126.35 16.4178 125.941 15.6967 124.822 15.2449C123.795 14.8337 122.737 14.492 121.676 14.1705C119.466 13.5016 119.461 13.5161 119.458 11.2399C119.458 11.208 119.519 11.1762 119.62 11.0777" fill="#0D47A1"/>
</g>
<path fill-rule="evenodd" clip-rule="evenodd" d="M115.934 12.5214C115.902 12.8759 115.917 13.0483 115.867 13.209C115.708 13.7103 115.523 14.2222 114.638 14.1984C113.844 14.1771 113.611 13.6994 113.574 13.2415C113.531 12.7088 113.609 12.156 113.768 11.635C113.841 11.3964 114.241 11.0363 114.475 11.0439C114.842 11.0564 115.328 11.2719 115.521 11.5117C115.795 11.8518 115.848 12.2922 115.934 12.5214" fill="#0D47A1"/>
<path fill-rule="evenodd" clip-rule="evenodd" d="M32.8074 63.0857C33.9846 61.4266 34.9478 59.941 36.0446 58.5604C37.06 57.2822 37.657 55.8659 38.0586 54.3066C39.5179 48.6396 41.0442 42.9899 42.4962 37.3212C42.7299 36.4091 43.1358 36.0079 44.0912 35.8301C45.981 35.4779 47.8492 34.9852 49.7002 34.4605C51.1113 34.0598 51.2293 33.7931 51.0026 32.3903C50.728 30.6893 50.3694 28.9984 50.1687 27.2891C49.8373 24.4574 50.5077 21.7557 51.5636 19.1593C52.1322 17.7614 51.998 17.2534 50.5529 17.213C48.6743 17.1611 46.7795 17.1463 44.9132 17.3302C40.3616 17.7788 35.8281 18.408 31.2768 18.858C26.4541 19.3351 21.6445 19.1377 16.8584 18.3243C12.5652 17.5949 9.08357 15.3195 5.77212 12.6963C5.68223 12.6253 5.6747 12.4512 5.5332 12.0641C7.13486 12.2801 8.59473 12.4053 10.0244 12.6827C15.2124 13.6892 20.4018 13.5868 25.5426 12.5312C30.7268 11.4669 35.8788 10.2359 41.0163 8.96293C44.5829 8.07939 48.1855 7.62246 51.8394 7.27378C55.8635 6.88988 59.8239 7.19873 63.7935 7.63776C65.1214 7.78468 66.4552 8.11807 67.719 8.55854C74.7693 11.0161 81.8031 13.5227 88.8311 16.0431C89.5719 16.309 90.2399 16.776 91.166 17.269C90.3411 18.0449 89.7412 18.6444 89.1048 19.2021C85.3369 22.5042 81.5558 25.791 77.79 29.0951C76.5742 30.1619 76.587 30.1816 75.208 29.268C74.6864 28.9225 74.2109 28.4901 73.6551 28.2162C72.0299 27.4155 71.5214 26.0207 71.4037 24.3573C71.3634 23.7886 71.281 23.1926 71.0566 22.6788C70.9113 22.3463 70.4741 22.1402 70.1673 21.8775C69.9397 22.2629 69.5379 22.6413 69.5222 23.035C69.4947 23.7399 69.6846 24.4566 69.8095 25.164C70.0174 26.3429 70.3425 27.5096 70.448 28.6962C70.7539 32.1377 69.2647 37.4012 65.0634 39.1437C62.0434 40.3959 58.9384 41.1368 55.7493 41.6656C53.4689 42.044 51.1795 42.3717 48.9074 42.7928C47.0524 43.1369 46.6204 43.7638 46.1472 45.6209C45.0112 50.0797 43.7911 54.517 42.5777 58.9558C41.9958 61.0843 40.2912 62.0827 38.4097 62.8355C36.706 63.517 34.9452 63.4861 32.8074 63.0857" fill="white"/>
<path fill-rule="evenodd" clip-rule="evenodd" d="M115.91 12.4789C115.837 12.2204 115.791 11.7238 115.557 11.3404C115.392 11.07 114.977 10.8269 114.663 10.8129C114.463 10.8044 114.121 11.2103 114.059 11.4794C113.923 12.0669 113.856 12.6901 113.893 13.2908C113.924 13.8072 114.123 14.3458 114.802 14.3698C115.559 14.3967 115.718 13.8194 115.853 13.2542C115.896 13.073 115.883 12.8786 115.91 12.4789M114.38 21.2602C113.736 21.0821 113.096 20.8911 112.448 20.7285C111.18 20.4103 110.88 20.607 110.496 21.8706C109.531 25.0475 108.566 28.2247 107.57 31.3922C106.728 34.0659 105.319 36.4143 103.311 38.3953C102.546 39.1501 101.65 39.6653 100.563 39.8242C99.8927 39.9223 99.5157 39.7848 99.3987 38.9954C99.2609 38.0668 98.9375 37.1614 98.6513 36.2591C98.4997 35.7808 98.1441 35.2899 97.6192 35.5912C97.3221 35.7622 97.099 36.3917 97.154 36.7702C97.3025 37.7955 97.5866 38.8053 97.8772 39.8045C98.0798 40.5021 98.0109 41.0522 97.5108 41.6371C96.5859 42.7195 95.7472 43.8748 94.8837 45.0081C94.4819 45.535 93.9971 45.8072 93.3011 45.8181C92.1565 45.8361 91.0132 45.945 89.8695 46.0159C89.5908 45.9559 89.3115 45.8961 89.0325 45.8364C89.1204 43.8511 89.7876 43.0492 91.7654 42.6272C92.3681 42.4982 92.7284 42.2192 93.0564 41.6614C94.2098 39.7004 94.0213 37.7649 93.1913 35.7808C92.8056 34.8596 92.4975 33.9058 92.098 32.9907C91.7288 32.1444 91.8014 31.4674 92.5304 30.8207C93.2794 30.1566 93.9288 29.3826 94.6517 28.6873C95.1039 28.2522 95.2382 27.8248 94.7981 27.327C94.3214 26.7878 93.7766 27.0059 93.4103 27.3828C92.3133 28.5109 91.1991 29.6425 90.2744 30.9045C89.9646 31.327 90.0462 32.1962 90.2272 32.7757C90.7223 34.3618 91.3734 35.8994 91.9447 37.463C92.0689 37.8038 92.117 38.1717 92.207 38.5557C89.517 38.3819 84.3463 35.5263 81.6805 33.2972C82.0442 32.9292 82.3806 32.5461 82.7596 32.211C86.0892 29.2697 89.4112 26.3192 92.769 23.4099C94.0306 22.3172 95.4129 21.3615 96.6793 20.2739C97.3967 19.6584 98.1178 19.6495 98.9476 19.8774C100.128 20.2018 100.351 20.0966 100.785 18.9982C101.573 17.0075 102.356 15.0148 103.102 13.0089C103.276 12.5423 103.383 12.1621 103.975 12.0234C104.239 11.9617 104.575 11.5037 104.574 11.2269C104.572 10.9344 104.261 10.5733 103.989 10.3706C103.694 10.1516 103.28 10.0953 102.93 9.94351C100.778 9.01377 99.3664 6.5945 99.5843 3.94421C101.212 4.31245 102.814 4.66954 104.41 5.0455C104.524 5.07237 104.661 5.22332 104.692 5.34112C105.026 6.64796 106.165 6.85838 107.218 7.16315C110.021 7.97539 112.83 8.76933 115.639 9.56727C117.275 10.0319 117.982 11.0591 117.79 12.7056C117.639 14.0084 117.733 14.2895 118.902 14.8427C119.76 15.2484 120.692 15.5011 121.591 15.8204C122.813 16.2547 123.539 18.5405 122.659 19.4648C121.946 20.2144 121.131 20.9335 120.227 21.4241C118.974 22.1051 118.233 21.8578 117.365 20.7248C116.962 20.1984 116.717 19.5497 116.295 19.0437C116.07 18.7746 115.618 18.6917 115.269 18.5248C115.121 18.9305 114.825 19.3496 114.861 19.7387C114.907 20.2364 115.22 20.7099 115.418 21.1936C115.072 21.2159 114.726 21.2382 114.38 21.2602" fill="white"/>
<path fill-rule="evenodd" clip-rule="evenodd" d="M83.9515 38.6182C83.2301 38.7105 82.5116 38.8361 81.7872 38.889C79.8368 39.0314 79.2018 38.6537 78.5513 36.8976C78.4539 36.634 78.5855 36.1544 78.7996 35.9694C79.0138 35.7845 79.5597 35.6916 79.7979 35.8217C81.2416 36.6113 82.639 37.4765 84.0519 38.3162C84.0186 38.4167 83.9847 38.5177 83.9515 38.6182" fill="#FDFEFE"/>
<path fill-rule="evenodd" clip-rule="evenodd" d="M83.2614 40.0239C82.6317 40.591 82.044 41.2055 81.3627 41.7145C80.2333 42.5581 79.4368 41.7184 78.5187 41.1379C79.5147 39.0946 81.5143 40.033 83.0543 39.7052C83.1235 39.8115 83.1923 39.9178 83.2614 40.0239" fill="#FDFEFE"/>
<path fill-rule="evenodd" clip-rule="evenodd" d="M77.0283 37.3386C78.8782 38.7257 78.918 38.9034 77.6327 39.7052C75.7676 38.1835 75.7676 38.1835 77.0283 37.3386" fill="#FDFEFE"/>
<path fill-rule="evenodd" clip-rule="evenodd" d="M73.4168 30.7649C74.1536 31.3419 74.4889 32.0912 74.5664 32.9519C74.4365 33.0117 74.3066 33.0717 74.1766 33.1314C73.7796 32.4006 73.3825 31.6697 72.9855 30.9389C73.1294 30.8811 73.2728 30.823 73.4168 30.7649" fill="#FDFEFE"/>
<path fill-rule="evenodd" clip-rule="evenodd" d="M74.6401 30.7649C74.8413 30.9838 75.0422 31.2029 75.3569 31.5457C74.4844 31.614 74.4959 31.2382 74.6401 30.7649" fill="#FDFEFE"/>
<path fill-rule="evenodd" clip-rule="evenodd" d="M86.0418 39.8283C85.8509 40.2738 85.7482 40.7944 85.4531 41.1524C84.1308 42.7559 82.7596 44.3185 81.3945 45.8853C80.2258 47.2266 78.7253 47.5533 77.0645 47.1962C73.6755 46.468 70.345 45.5361 67.1759 44.092C66.7405 43.8934 66.3063 43.6747 65.9126 43.4046C64.7905 42.6347 64.7861 42.1967 66.0075 41.6119C67.9671 40.6738 69.3901 39.2113 70.3337 37.2869C70.8403 36.2542 71.1732 35.1345 71.6433 33.8983C72.0775 34.7275 72.4756 35.4886 72.9656 36.425C73.9179 35.6265 74.7757 34.9485 75.5883 34.2194C80.8761 29.4769 86.1546 24.7235 91.4341 19.9717C91.9015 19.5512 92.3308 19.0826 92.8258 18.6995C93.1591 18.4417 93.5884 18.12 93.9537 18.1448C94.3619 18.1725 94.7845 18.5179 95.1085 18.8245C95.1739 18.8864 94.8962 19.4736 94.6593 19.6829C88.3951 25.2164 82.1214 30.7394 75.8344 36.2463C73.8031 38.0253 73.3162 37.9628 75.38 40.6277C76.2423 41.7416 76.9965 42.8987 78.2358 43.6572C79.8231 44.6295 81.0878 44.5886 82.3723 43.2718C83.3795 42.2394 84.2922 41.1132 85.2515 40.0332C85.371 39.8983 85.5179 39.7885 85.6524 39.6671C85.7823 39.7211 85.9122 39.7745 86.0418 39.8283" fill="#FDD835"/>
<path fill-rule="evenodd" clip-rule="evenodd" d="M107.06 2.10352C110.837 2.98497 114.498 3.8396 118.051 4.66859C118.124 4.99593 118.188 5.10203 118.158 5.17315C117.443 6.8763 117.482 6.91769 119.356 7.45169C121.072 7.94109 122.772 8.48209 124.476 9.01026C125.019 9.17874 125.642 9.34751 125.34 10.0902C125.066 10.7665 124.51 10.4724 124.037 10.3339C119.241 8.92981 114.448 7.5199 109.654 6.11144C108.627 5.80975 107.602 5.49874 106.571 5.20842C105.925 5.02653 105.781 4.6511 106.049 4.10456C106.367 3.45397 106.702 2.81066 107.06 2.10352" fill="#FDD835"/>
</svg>
