<svg xmlns="http://www.w3.org/2000/svg" xmlns:xlink="http://www.w3.org/1999/xlink" width="23" height="20" viewBox="0 0 23 20">
    <defs>
        <path id="prefix__a" d="M0.05 0L23.03 0 23.03 20 0.05 20z"/>
    </defs>
    <g fill="none" fill-rule="evenodd">
        <mask id="prefix__b" fill="#fff">
            <use xlink:href="#prefix__a"/>
        </mask>
        <path fill="#90CAF9" d="M22.913 7.227c-.029.146-.029.295-.084.432-.332.801-.954 1.465-1.413 2.204-.59.941-5.602-1.09-4.954-2.346.24-.466 1.191-1.752 1.263-2.27.065-.462-.548-.823-1.11-.869-1.488-.12-3.39-.01-4.967 0h-.265c-1.578-.01-3.48-.12-4.967 0-.564.046-1.175.407-1.11.87.072.517 1.022 1.803 1.263 2.269.648 1.256-4.365 3.287-4.957 2.346C1.156 9.124.534 8.46.202 7.66c-.055-.136-.059-.286-.085-.432C-.617 3.942 2.218.589 6.484.244 8.115.111 9.75.036 11.384.01V0c.045 0 .088.003.133.003.042 0 .085-.003.13-.003v.01c1.635.03 3.268.1 4.899.234 4.268.345 7.103 3.698 6.367 6.983zm-2.93 11.34c.046.789-.468 1.433-1.148 1.433H4.195c-.676 0-1.193-.644-1.148-1.433l.426-7.187c1.553-.364 3.535-1.315 4.255-2.493.4-.658.443-1.397.114-2.035-.084-.163-.238-.41-.42-.69-.004-.013-.004-.013-.01-.023h7.969l-.01.03c-.101.24-.133.426-.117.563-.023.042-.052.094-.072.126-.325.632-.283 1.371.117 2.029.72 1.178 2.703 2.129 4.255 2.49l.43 7.19zm-5.67-7.46c-1.533-1.534-4.026-1.534-5.563 0-1.533 1.533-1.533 4.03 0 5.563 1.39 1.387 3.564 1.517 5.1.39l-.96-.96c-1.002.612-2.33.492-3.196-.374-1.012-1.013-1.012-2.663 0-3.679 1.016-1.012 2.663-1.012 3.678 0 .863.863.984 2.185.378 3.184l.963.964c1.117-1.537.987-3.705-.4-5.088z" mask="url(#prefix__b)"/>
    </g>
</svg>
