<svg xmlns="http://www.w3.org/2000/svg" xmlns:xlink="http://www.w3.org/1999/xlink" width="121" height="121" viewBox="0 0 121 121">
    <defs>
        <path id="prefix__a" d="M0.111 0L54.888 0 54.888 48.991 0.111 48.991z"/>
        <path id="prefix__c" d="M0.125 0.061L23.908 0.061 23.908 47.991 0.125 47.991z"/>
        <path id="prefix__e" d="M0.073 0.129L27.88 0.129 27.88 32.991 0.073 32.991z"/>
    </defs>
    <g fill="none" fill-rule="evenodd">
        <circle cx="60.5" cy="60.5" r="59.876" fill="#E1F5FE"/>
        <g>
            <g transform="translate(33 31) translate(0 9.5)">
                <mask id="prefix__b" fill="#fff">
                    <use xlink:href="#prefix__a"/>
                </mask>
                <path fill="#0D47A1" d="M34.27 0v4.9c0 3.783-3.036 6.86-6.769 6.86-3.732 0-6.77-3.077-6.77-6.86V0h-1.933v4.9c0 4.863 3.905 8.82 8.703 8.82 4.8 0 8.704-3.957 8.704-8.82V0H34.27z" mask="url(#prefix__b)"/>
                <path fill="#0D47A1" d="M54.684 40.472L49.48 19.355c-.553-2.168-2.479-3.642-4.614-3.672l-11.563-.91V10.78h-1.935v4.9c0 .512.389.937.893.977l12.533.983h.005c1.323 0 2.478.907 2.808 2.197l5.202 21.111c.096.39.145.79.145 1.192 0 2.702-2.17 4.9-4.836 4.9V49c3.732 0 6.77-3.078 6.77-6.86 0-.562-.068-1.124-.204-1.668zM21.7 10.78v3.994l-11.487.906h-.01c-2.204 0-4.13 1.51-4.684 3.683L.318 40.47c-.44 1.778-.171 3.622.758 5.194.928 1.572 2.406 2.683 4.16 3.128.538.138 1.092.207 1.648.207v-1.96c-.397 0-.792-.05-1.177-.149-1.253-.318-2.308-1.11-2.972-2.233-.663-1.124-.856-2.441-.541-3.712l5.2-21.101c.332-1.3 1.49-2.208 2.892-2.208l12.456-.98c.502-.04.89-.466.89-.977v-4.9H21.7z" mask="url(#prefix__b)"/>
            </g>
            <path fill="#0D47A1" d="M31.278.5h-7.556C21.12.5 19 2.556 19 5.083v5.5c0 .506.423.917.945.917h15.11c.522 0 .945-.41.945-.917v-5.5C36 2.556 33.882.5 31.278.5zm2.834 9.167H20.889V5.083c0-1.516 1.271-2.75 2.833-2.75h7.556c1.563 0 2.834 1.234 2.834 2.75v4.584z" transform="translate(33 31)"/>
            <path fill="#0D47A1" d="M31.278 5.5h-7.556C21.12 5.5 19 7.743 19 10.5c0 .552.423 1 .944 1h15.112c.52 0 .944-.448.944-1 0-2.757-2.118-5-4.722-5zm-10.226 4c.389-1.164 1.439-2 2.67-2h7.556c1.232 0 2.282.836 2.672 2H21.052z" transform="translate(33 31)"/>
            <g transform="translate(33 31) translate(5 10.5)">
                <mask id="prefix__d" fill="#fff">
                    <use xlink:href="#prefix__c"/>
                </mask>
                <path fill="#0D47A1" d="M22.917 3.975V.06h-1.982v4.892c0 .54.444.978.99.978h1.983V3.975h-.99zM13.998 42.13H6.071v-1.957c0-1.618-1.334-2.934-2.973-2.934-1.64 0-2.973 1.316-2.973 2.934v6.848c0 .542.444.979.99.979h8.92c2.732 0 4.955-2.194 4.955-4.892 0-.54-.444-.978-.992-.978zm-3.963 3.913H2.107v-5.87c0-.54.445-.978.991-.978s.99.438.99.978v2.935c0 .541.445.978.992.978h7.758c-.41 1.14-1.511 1.957-2.803 1.957z" mask="url(#prefix__d)"/>
            </g>
            <path fill="#0D47A1" d="M3 43.5L10 43.5 10 41.5 3 41.5zM45 43.5L52 43.5 52 41.5 45 41.5z" transform="translate(33 31)"/>
            <path fill="#0D47A1" d="M45.027 29.5H9.974c-.538 0-.974.43-.974.961V53.54c0 .531.436.961.974.961h35.053c.537 0 .973-.43.973-.961V30.46c0-.53-.435-.961-.973-.961zm-34.08 23.078h33.106V31.423H10.948v21.155z" transform="translate(33 31)"/>
            <path fill="#0D47A1" d="M40 50.5L42 50.5 42 48.5 40 48.5zM36 50.5L38 50.5 38 48.5 36 48.5z" transform="translate(33 31)"/>
            <g transform="translate(33 31) translate(22 24.5)">
                <mask id="prefix__f" fill="#fff">
                    <use xlink:href="#prefix__e"/>
                </mask>
                <path fill="#0D47A1" d="M9.759.13L5.6 4.195 1.443.129.073 1.47l4.843 4.735c.182.178.429.278.685.278.257 0 .504-.1.685-.278l4.842-4.735-1.37-1.34zM24.974 22.582c-1.602 0-2.906 1.275-2.906 2.841v1.895H14.32c-.536 0-.969.423-.969.947 0 2.61 2.173 4.735 4.843 4.735h8.719c.534 0 .968-.423.968-.947v-6.63c0-1.566-1.304-2.84-2.906-2.84zm.969 8.524h-7.75c-1.262 0-2.34-.792-2.74-1.895h7.584c.535 0 .968-.423.968-.946v-2.842c0-.523.434-.947.97-.947.534 0 .968.424.968.947v5.683z" mask="url(#prefix__f)"/>
            </g>
            <path fill="#0D47A1" d="M10 37.5L45 37.5 45 35.5 10 35.5z" transform="translate(33 31)"/>
            <path fill="#0D47A1" d="M31.1 28.5h-7.2c-.497 0-.9.448-.9 1v13c0 .553.403 1 .9 1h7.2c.497 0 .9-.447.9-1v-13c0-.552-.402-1-.9-1zm-6.3 13h5.4v-11h-5.4v11z" transform="translate(33 31)"/>
        </g>
    </g>
</svg>
