<svg xmlns="http://www.w3.org/2000/svg" xmlns:xlink="http://www.w3.org/1999/xlink" width="121" height="121" viewBox="0 0 121 121">
    <defs>
        <path id="prefix__a" d="M0 0L65 0 65 58.742 0 58.742z"/>
    </defs>
    <g fill="none" fill-rule="evenodd">
        <circle cx="60.5" cy="60.5" r="59.876" fill="#E1F5FE"/>
        <g>
            <g transform="translate(29 31) translate(0 .625)">
                <mask id="prefix__b" fill="#fff">
                    <use xlink:href="#prefix__a"/>
                </mask>
                <path fill="#0D47A1" d="M61.75 45.694H3.25c-.598 0-1.083-.487-1.083-1.088v-3.263h60.666v3.263c0 .601-.485 1.088-1.083 1.088zm-31.417 6.528h5.417V47.87h-5.417v4.352zm16.25 3.264v1.088H18.417v-1.088c0-.6.485-1.088 1.083-1.088h26c.598 0 1.083.487 1.083 1.088zM3.25 2.176h58.5c.598 0 1.083.487 1.083 1.088v3.354H2.167V3.264c0-.6.485-1.088 1.083-1.088zm-1.083 36.99h60.666V8.795H2.167v30.373zM61.75 0H3.25C1.455 0 0 1.461 0 3.264v41.342c0 1.803 1.455 3.264 3.25 3.264h24.917v4.352H19.5c-1.795 0-3.25 1.461-3.25 3.264v2.176c0 .6.485 1.088 1.083 1.088h30.334c.598 0 1.083-.487 1.083-1.088v-2.176c0-1.803-1.455-3.264-3.25-3.264h-7.583V47.87H61.75c1.795 0 3.25-1.46 3.25-3.264V3.264C65 1.46 63.545 0 61.75 0z" mask="url(#prefix__b)"/>
            </g>
            <path fill="#0D47A1" d="M23.377 27.187H12.19l-1.727-8.75h14.639l-1.726 8.75zM26.42 16.25H9.99l-.875-3.546c-.12-.487-.551-.829-1.047-.829H4.83c-.597 0-1.08.49-1.08 1.094 0 .604.483 1.093 1.08 1.093h2.395L10.248 28.5c.102.51.545.876 1.059.875H24.26c.513 0 .955-.366 1.058-.875l2.159-10.938c.12-.591-.258-1.17-.842-1.29-.07-.015-.143-.022-.216-.022zM14.375 36.042c-.575 0-1.042-.467-1.042-1.042s.467-1.042 1.042-1.042 1.042.467 1.042 1.042-.467 1.042-1.042 1.042zm0-4.167c-1.726 0-3.125 1.4-3.125 3.125 0 1.726 1.4 3.125 3.125 3.125 1.726 0 3.125-1.4 3.125-3.125 0-1.726-1.4-3.125-3.125-3.125zM23.125 36.042c-.575 0-1.042-.467-1.042-1.042s.467-1.042 1.042-1.042 1.042.467 1.042 1.042-.467 1.042-1.042 1.042zm0-4.167C21.399 31.875 20 33.275 20 35c0 1.726 1.4 3.125 3.125 3.125 1.726 0 3.125-1.4 3.125-3.125 0-1.726-1.4-3.125-3.125-3.125zM53.875 15.625h-20.25c-.621 0-1.125.28-1.125.625s.504.625 1.125.625h20.25c.621 0 1.125-.28 1.125-.625s-.504-.625-1.125-.625M57.5 16.875H60c.69 0 1.25-.28 1.25-.625s-.56-.625-1.25-.625h-2.5c-.69 0-1.25.28-1.25.625s.56.625 1.25.625M53.875 19.375h-20.25c-.621 0-1.125.28-1.125.625s.504.625 1.125.625h20.25c.621 0 1.125-.28 1.125-.625s-.504-.625-1.125-.625M60 19.375h-2.5c-.69 0-1.25.28-1.25.625s.56.625 1.25.625H60c.69 0 1.25-.28 1.25-.625s-.56-.625-1.25-.625M53.875 24.375h-20.25c-.621 0-1.125.28-1.125.625s.504.625 1.125.625h20.25c.621 0 1.125-.28 1.125-.625s-.504-.625-1.125-.625M60 24.375h-2.5c-.69 0-1.25.28-1.25.625s.56.625 1.25.625H60c.69 0 1.25-.28 1.25-.625s-.56-.625-1.25-.625M53.875 28.125h-20.25c-.621 0-1.125.28-1.125.625s.504.625 1.125.625h20.25c.621 0 1.125-.28 1.125-.625s-.504-.625-1.125-.625M60 28.125h-2.5c-.69 0-1.25.28-1.25.625s.56.625 1.25.625H60c.69 0 1.25-.28 1.25-.625s-.56-.625-1.25-.625" transform="translate(29 31)"/>
        </g>
    </g>
</svg>
