<svg xmlns="http://www.w3.org/2000/svg" xmlns:xlink="http://www.w3.org/1999/xlink" width="121" height="121" viewBox="0 0 121 121">
    <defs>
        <path id="prefix__a" d="M0 0.5L63 0.5 63 42.5 0 42.5z"/>
    </defs>
    <g fill="none" fill-rule="evenodd">
        <circle cx="60.5" cy="60.5" r="59.876" fill="#E1F5FE"/>
        <g transform="matrix(-1 0 0 1 92 38)">
            <mask id="prefix__b" fill="#fff">
                <use xlink:href="#prefix__a"/>
            </mask>
            <path fill="#0D47A1" d="M1.144 36.242h3.464c.405 3.567 3.365 6.258 6.882 6.258 3.517 0 6.476-2.69 6.882-6.258h22.4c.407 3.567 3.365 6.258 6.882 6.258 3.518 0 6.476-2.69 6.883-6.258h7.309c.637 0 1.154-.528 1.154-1.179V1.68C63 1.028 62.483.5 61.846.5H21.778c-.637 0-1.154.528-1.154 1.18v6.612h-9.78c-.378.001-.732.19-.948.507L3.58 18.03l-2.47 3.537-.901 1.308c-.135.197-.208.431-.209.672v11.482c-.009.317.108.624.323.852.215.229.511.359.821.362zm10.322 3.536c-2.55 0-4.618-2.11-4.618-4.715 0-2.604 2.068-4.715 4.618-4.715 2.552 0 4.62 2.11 4.62 4.715 0 2.614-2.059 4.742-4.62 4.774v-.059zm36.165 0c-2.55 0-4.619-2.11-4.619-4.715 0-2.604 2.068-4.715 4.62-4.715 2.55 0 4.618 2.11 4.618 4.715 0 2.614-2.058 4.742-4.619 4.774v-.059zm13.037-36.92v21.125h-31.35c-.637 0-1.155.527-1.155 1.178 0 .651.518 1.18 1.155 1.18h31.35v7.544h-6.154c-.406-3.567-3.365-6.258-6.883-6.258-3.517 0-6.476 2.69-6.881 6.258H22.933V8.22h8.336c.638 0 1.155-.527 1.155-1.179 0-.65-.517-1.179-1.155-1.179h-8.336V2.858h37.735zM11.444 10.65h9.237v23.235h-2.31c-.405-3.567-3.364-6.258-6.881-6.258-3.517 0-6.477 2.69-6.882 6.258h-2.31v-9.962l.347-.507h14.087c.638 0 1.155-.527 1.155-1.178v-8.723c0-.651-.517-1.18-1.155-1.18h-6.466l1.178-1.685zM8.65 14.717h6.928v6.365H4.25l4.4-6.365z" mask="url(#prefix__b)"/>
        </g>
    </g>
</svg>
