<svg width="55" height="54" viewBox="0 0 55 54" fill="none" xmlns="http://www.w3.org/2000/svg">
<path id="success" fill-rule="evenodd" clip-rule="evenodd" d="M27.5 0C12.3374 0 0 12.1131 0 27C0 41.8869 12.3374 54 27.5 54C42.6626 54 55 41.8869 55 27C55 12.1131 42.6626 0 27.5 0ZM42.4604 18.482L25.3976 37.2957C24.9749 37.7596 24.3869 38 23.7975 38C23.3295 38 22.8602 37.8471 22.4642 37.5401L11.7974 29.1805C10.8814 28.4605 10.7308 27.1435 11.4694 26.2406C12.2041 25.3365 13.5481 25.194 14.4641 25.914L23.5482 33.0336L39.2723 15.7003C40.0537 14.8379 41.403 14.7622 42.283 15.5278C43.163 16.2974 43.2457 17.6197 42.4604 18.482Z" fill="#FDD835"/>
</svg>
