<svg xmlns="http://www.w3.org/2000/svg" xmlns:xlink="http://www.w3.org/1999/xlink" width="18" height="23" viewBox="0 0 18 23">
    <defs>
        <path id="prefix__a" d="M0 0L18 0 18 23 0 23z"/>
    </defs>
    <g fill="none" fill-rule="evenodd">
        <mask id="prefix__b" fill="#fff">
            <use xlink:href="#prefix__a"/>
        </mask>
        <path fill="#90CAF9" d="M16.049 16.441l-3.739-1.83c-.352-.174-.571-.52-.571-.908v-1.295c.09-.109.183-.23.28-.365.486-.67.874-1.417 1.157-2.224.552-.247.911-.782.911-1.385V6.9c0-.368-.141-.726-.392-1.005v-2.04c.021-.21.11-1.466-.818-2.5C12.073.453 10.768 0 9 0c-1.77 0-3.072.455-3.876 1.353-.927 1.035-.841 2.291-.818 2.5v2.041c-.25.28-.392.637-.392 1.005v1.535c0 .466.216.9.586 1.19.358 1.391 1.109 2.44 1.37 2.774v1.27c0 .37-.206.71-.539.889l-3.49 1.865C.705 17.03 0 18.192 0 19.458V20.7C0 22.519 5.887 23 8.999 23 12.113 23 18 22.519 18 20.7v-1.166c0-1.318-.749-2.503-1.951-3.093z" mask="url(#prefix__b)"/>
    </g>
</svg>
